<svg xmlns="http://www.w3.org/2000/svg" xml:space="preserve" viewBox="0 0 32 32"><path fill="#CB8B22" d="m31.96 16.88-.01.4c-.11.23 0 .48-.09.71-.01.72-.17 1.4-.4 2.08-.06-.03-.04-.1-.09-.13.04.12-.01.25.05.37a13.71 13.71 0 0 1-2.3 4.81c-.26-.03-.41-.2-.48-.44.01-.48.36-.78.58-1.15.33-.59.55-1.24.96-1.78.27-.19.34-.45.26-.76.07-.72.41-1.39.47-2.11l.04-.2c.16-.32-.1-.79.33-1.02.14.06.08.2.11.32.03-.21-.06-.37-.1-.55 0-1.01-.08-2.02.04-3.02.25-.33.32-.08.39.12.09.28.05.59.18.86.04.49-.08 1 .06 1.49z"/><path fill="#155E9C" d="M1.29 10.02c.17-.51.31-1.03.66-1.45.21-.11.29-.29.29-.52.54-1 1.21-1.89 2.06-2.65.16-.2.33-.39.53-.57.18-.19.37-.37.52-.59a9.82 9.82 0 0 1 2.23-1.73c.17.14.21.33.2.53-.3.62-.94.89-1.44 1.28a15.16 15.16 0 0 0-3.69 4.62c-.31.56-.51 1.2-.96 1.68a.51.51 0 0 1-.45-.21.49.49 0 0 1 .05-.39z"/><path fill="#CC8B1F" d="m28.7 24.68.41.44c-.66.97-1.5 1.78-2.32 2.61-.34.09-.51.38-.72.62a8.64 8.64 0 0 1-2.08 1.35c-.19.06-.21-.09-.25-.21 0-.06.01-.13.04-.19.47-.44 1.04-.73 1.53-1.14l.2-.18a15.96 15.96 0 0 0 2.88-3.15c.07-.1.14-.23.31-.15z"/><path fill="#2288CE" d="M4.56 26.94a10.68 10.68 0 0 1-2.49-3.18c.05-.21.13-.39.38-.43.17.09.29.27.48.34.15.1.23.24.27.42 0 .2.13.26.29.3.18.12.22.33.28.52.03.24.15.41.36.52.38.28.72.6.78 1.1-.04.19-.16.32-.35.41z"/><path fill="#1A7CC0" d="M.87 20.99a9.33 9.33 0 0 1-.61-2.26c.13-.33-.08-.64-.03-.96-.01-.1-.04-.19-.06-.29.03-.24-.03-.48.05-.72.27-.09.37.12.5.27.14.29.08.61.1.92 0 .13.03.25.06.38.05.2.04.43.19.6.24.29.24.66.34.99.05.35.24.67.19 1.03-.24.14-.49-.09-.73.04z"/><path fill="#DBA843" d="M30.25 8.84c.33.69.77 1.34.91 2.12-.07.27-.06.6-.43.69-.53-.65-.7-1.46-.99-2.21.02-.34.28-.46.51-.6z"/><path fill="#135C97" d="M11.9 31.29c-.76.01-1.42-.33-2.08-.63-.18-.08-.4-.11-.56-.25-.08-.16-.08-.3.05-.44.12-.11.28-.03.4-.1.15-.03.27.03.38.13.11.12.24.19.41.2l.24.06c.17.1.34.18.54.2.09.01.17.04.25.08.17.16.43.22.54.45.02.15-.03.25-.17.3z"/><path fill="#1464A2" d="m9.42 29.96-.15.46c-.72-.37-1.46-.69-2.1-1.19-.02-.33.31-.34.47-.51.4.05.73.22.98.54.1.18.27.26.45.35.14.09.3.15.35.35z"/><path fill="#CC8F27" d="M31.83 15.3c-.33-.01-.15-.27-.22-.41-.09-.21.05-.48-.18-.64a.23.23 0 0 1-.17.07.27.27 0 0 1-.16-.1.92.92 0 0 1-.09-.37c-.01-.21 0-.42-.08-.62-.05-.14-.11-.28-.09-.44.1-.24.23-.41.46-.12.1.13.22.21.37.26.17.74.31 1.48.27 2.24-.01.06-.05.1-.11.13z"/><path fill="#F9D875" d="M24.23 2.39c.75.34 1.38.85 1.98 1.4-.03.43-.34.21-.55.25a1.1 1.1 0 0 1-.43-.15c-.33-.34-.83-.47-1.06-.92.01-.19-.09-.4.06-.58z"/><path fill="#D59D37" d="M31.68 12.93c-.14.12-.28.42-.4-.03-.03-.13-.09-.46-.32-.11a1 1 0 0 1-.21-1.15l.4-.7c.19.67.5 1.29.53 1.99z"/><path fill="#1F81C3" d="M.87 20.99c.22-.47.45-.13.68-.01.35.04.31.33.36.56-.02.18-.01.36-.05.54-.19.28.1.66-.2.91a6.2 6.2 0 0 1-.79-2z"/><path fill="#1867A5" d="M.27 13.33c.04-.32.06-.65.23-.93.28-.36.5-.36.63.11.03.09.04.18.04.28a.7.7 0 0 1-.12.34c-.17.21-.09.44-.05.66.01.19-.04.38-.05.57-.03.31.06.64-.14.92-.35.1-.27-.2-.33-.37-.02-.27.04-.56-.13-.8a.37.37 0 0 1-.05-.17c.01-.21.05-.41-.03-.61z"/><path fill="#F1CC69" d="M20.29.81c.73.13 1.43.33 2.1.66.22.25.23.44-.15.5-.71-.14-1.34-.49-2.03-.67-.17-.04-.32-.15-.36-.34.01-.12.06-.2.19-.17.08.08.16.08.25.02z"/><path fill="#1864A0" d="M1.03 12.53c-.1-.35-.33-.19-.54-.14.01-.19-.02-.38.13-.53.22-.3.3-.66.36-1.02.11-.14.11-.36.32-.43l.43.15c.17.47-.09.84-.28 1.23-.22.21-.21.54-.42.74z"/><path fill="#004B8A" d="m13.72 31.68-.36-.03c-.04-.07-.03-.12.03-.17.36-.22.78-.02 1.14-.2a.64.64 0 0 1 .19-.08 27.9 27.9 0 0 0 2.63 0c.12 0 .22.04.29.13.07.14.16.28-.01.41-.15.07-.31.05-.47.06-1.15-.01-2.3.05-3.44-.12z"/><path fill="#1865A6" d="M7.72 3.04c-.09-.17-.16-.34-.13-.53.15-.04.3-.09.39-.24.44-.33.92-.56 1.45-.7.08.13.05.27.04.41a.62.62 0 0 1-.15.21c-.17.15-.37.27-.55.4-.32.13-.59.34-.89.49a.19.19 0 0 1-.16-.04z"/><path fill="#E5B550" d="M29.18 7c.32.4.63.82.8 1.31-.08.25-.25.39-.53.35a2.5 2.5 0 0 1-.84-1.35c.05-.36.46-.07.57-.31z"/><path fill="#F7D472" d="M25.67 3.97c.14-.18.44.12.55-.18.54.29.92.76 1.32 1.2-.21.2-.47.03-.7.08-.49-.26-1.04-.45-1.17-1.1z"/><path fill="#F4CE6C" d="M22.25 1.85c.34-.02.12-.25.15-.39.68.1 1.15.59 1.71.9-.02.16 0 .33-.16.44-.65-.16-1.29-.34-1.7-.95z"/><path fill="#2386C7" d="M1.67 22.99c.18-.3-.35-.71.14-.96.09.01.15.06.21.13.07.12.15.23.28.3.05.03.09.07.13.12.12.19.19.39.15.62a.33.33 0 0 1-.11.15c-.16.1-.19.34-.4.4a1.99 1.99 0 0 1-.4-.76z"/><path fill="#F0C663" d="M27.76 5.27c.33.33.7.63.93 1.05-.16.37-.48.09-.71.18-.3-.04-.45-.28-.62-.5-.11-.19-.28-.38-.14-.63.16-.14.33-.24.54-.1z"/><path fill="#F3C165" d="m17.32 31.68.36-.02c.19-.19.46-.16.68-.25.14-.03.29-.05.44-.05.26.02.54-.05.75.19-1.66.47-3.34.5-5.04.27.65-.19 1.32-.04 1.98-.09.27-.02.56.06.83-.05z"/><path fill="#1F85CB" d="M4.56 26.94c-.02-.22.2-.28.28-.44.37-.02.52.33.79.48.04.04.07.09.09.14.05.13.09.27.1.41 0 .14 0 .28-.09.4a.33.33 0 0 1-.16.07l-1.01-1.06z"/><path fill="#105C98" d="M14.66 31.4c-.41.28-.88.07-1.31.13-.26.05-.52-.12-.78-.02a.9.9 0 0 1-.67-.22l.14-.28c-.05-.07-.04-.13.02-.18.32-.14.61 0 .9.1.34.23.75.21 1.13.3.2 0 .41.02.57.17z"/><path fill="#076AB1" d="M11.91.65C12.58.4 13.3.35 14 .24l.05.06c0 .06-.02.11-.05.15-.08.08-.18.14-.27.21a.8.8 0 0 1-.24.13c-.54.07-1.03.51-1.62.25-.08-.14-.06-.27.04-.39z"/><path fill="#EBBF5A" d="M28.03 6.47c.02-.14.05-.26.21-.13.17.14.3.05.45-.02.2.2.38.41.49.67-.07.37-.07.37-.51.28-.41-.09-.59-.4-.64-.8z"/><path fill="#1673B9" d="M6.78 28.94c-.18-.22-.58-.2-.64-.56-.08-.08-.2-.14-.21-.28.01-.16.06-.3.18-.41.28-.07.42.18.62.28a1 1 0 0 1 .26.24c.08.13.14.27.11.43a.48.48 0 0 1-.32.3z"/><path fill="#2070AB" d="M9.42 1.95c-.1-.13-.06-.26 0-.39.3-.11.52-.42.88-.4.31-.03.26.19.25.37-.29.39-.62.64-1.13.42z"/><path fill="#16598B" d="M17.32 31.68c-.93.25-1.88.08-2.82.14-.26-.04-.54.01-.79-.14h3.61z"/><path fill="#E0B04D" d="M29.47 8.57c.22.02.34-.18.51-.26.1.17.28.3.27.53-.04.24-.37.27-.39.53-.38-.14-.51-.41-.39-.8z"/><path fill="#F1F5F5" d="M14.4.11a7.23 7.23 0 0 1 3.14.03c-.24.21-.53.14-.8.16h-1.78c-.21 0-.42 0-.56-.19z"/><path fill="#1E5984" d="m21.19 30.98-.21.04a.51.51 0 0 1-.52.06c-.1-.07-.13-.17-.13-.28.01-.11.07-.2.15-.27.21-.12.43-.2.68-.17.07.01.13.04.19.08.05.05.08.11.09.18.02.18-.06.31-.25.36z"/><path fill="#CE922A" d="m21.19 30.98.16-.35c.24-.24.57-.28.87-.39.1-.01.2 0 .29.05.08.08.09.17.02.26-.42.21-.84.46-1.34.43z"/><path fill="#004D93" d="m.25 16.75-.01.79c-.04.04-.07.04-.11 0l-.03-.62a6.63 6.63 0 0 1 0-1.78l.03-.62c.08-.04.15-.02.19.06.16.37.09.77.11 1.15-.04.34.09.72-.18 1.02z"/><path fill="#CBA34E" d="m19.54 31.55-.81-.02c.4-.5.96-.49 1.53-.48.1.05.18.13.2.25-.28.2-.6.23-.92.25z"/><path fill="#166CAF" d="M6.78 28.94a.47.47 0 0 1 .29-.31c.1-.11.23-.12.36-.07.09.05.15.12.16.23.05.34-.33.25-.43.44l-.38-.29z"/><path fill="#1F68A3" d="M10.47 1.57c0-.16.01-.32-.17-.4.2-.16.41-.29.69-.23.09.08.11.18.11.3-.09.32-.26.51-.63.33z"/><path fill="#F5D575" d="m20.04.78-.14.16c-.35.25-.68.15-1.01-.06-.16-.24.03-.3.19-.37.18-.05.31.05.45.14.23-.19.4-.12.51.13z"/><path fill="#F3CD69" d="m27.76 5.27-.56.14c-.24-.01-.36-.13-.36-.37.21-.34.47.02.7-.05.1.07.2.14.22.28z"/><path fill="#C4851C" d="M23.83 29.4c.01.12.04.23.16.29-.09.26-.32.32-.53.39-.11.07-.16 0-.2-.09-.03-.16.04-.3.13-.42a.84.84 0 0 1 .29-.2c.04-.01.1 0 .15.03z"/><path fill="#BD801B" d="m31.83 15.3.12-.13c.06.57.06 1.14 0 1.71-.25-.51-.05-1.05-.12-1.58z"/><path fill="#1D70B0" d="M.09 15.13c.06.59.06 1.19 0 1.78a4.45 4.45 0 0 1 0-1.78z"/><path fill="#155694" d="M1.03 10.82c-.01.4 0 .81-.41 1.05 0-.38.18-.71.31-1.05.03-.06.07-.06.1 0z"/><path fill="#59939C" d="m19.53.64-.42-.08c-.2.02-.39.14-.6.03-.16-.15-.05-.23.07-.31.32.12.76-.08.95.36z"/><path fill="#0766A2" d="m11 1.22-.01-.29c.08-.07.14-.15.27-.12.15.08.38.04.43.28-.19.3-.4.38-.69.13z"/><path fill="#C99536" d="m23.3 29.92.15.17a.83.83 0 0 1-.53.27c-.11-.06-.16-.17-.19-.28l.01-.09c.03-.06.07-.1.13-.12.15-.06.3-.06.43.05z"/><path fill="#196599" d="m14.4.11.53.03c.09.08.25.01.3.16-.01.07-.03.12-.09.15a.62.62 0 0 1-.38.03c-.24-.09-.52-.02-.73-.21L14 .22c.13-.02.27-.06.4-.11z"/><path fill="#20708A" d="M18.59.28a2.4 2.4 0 0 1-.13.21.22.22 0 0 1-.13.1c-.22 0-.44-.06-.66-.09a.64.64 0 0 1-.14-.08L17.5.34l.03-.08 1.06.02z"/><path fill="#0B61A3" d="m11.69 1.07-.43-.26.65-.16v.39c-.06.07-.14.08-.22.03z"/><path fill="#F6D471" d="M23.96 2.79c.01-.16-.02-.33.15-.43l.12.03c-.03.17.24.36-.02.52-.14.07-.23.05-.25-.12z"/><path fill="#024D8E" d="M12.57 31.51c.26-.17.53-.18.78.02v.12c-.28.09-.53-.04-.78-.14z"/><path fill="#125997" d="M1.03 10.82h-.1c.12-.27.09-.6.36-.8v.4l-.26.4z"/><path fill="#E4A93F" d="m20.46 31.29-.16-.16c.03-.06.07-.1.13-.12l.56.01c-.07.31-.32.26-.53.27z"/><path fill="#075FA7" d="M.24 14.51H.13c-.02-.24-.04-.48.09-.7.08.03.1.12.15.17h.01c.1.16.15.32.05.5-.06.07-.12.08-.19.03z"/><path fill="#C08016" d="M26.07 28.34c.1-.37.31-.61.72-.62-.21.25-.41.5-.72.62z"/><path fill="#0C518E" d="M5.35 4.24c-.04.32-.28.47-.52.64a.12.12 0 0 1-.05-.1l.04-.06c.15-.2.29-.4.53-.48z"/><path fill="#0862A6" d="M.37 17.68c-.05.35.12.72-.11 1.05l-.03-.37c-.02-.24-.21-.52.14-.68z"/><path fill="#074685" d="m4.82 4.72.01.16c-.13.22-.3.41-.54.52.03-.34.3-.49.53-.68z"/><path fill="#1D70B0" d="M.37 17.68c-.22.19-.08.46-.14.68a1.29 1.29 0 0 1-.1-.82h.11l.13.14z"/><path fill="#084C8D" d="M2.24 8.05c.12.3.05.48-.29.52l.29-.52z"/><path fill="#C48112" d="M22.81 30.09c.1.06.11.16.12.27l-.39.2v-.21c.02-.15.11-.25.27-.26z"/><path fill="#00619C" d="m16.76.14.78.01a.2.2 0 0 1 0 .11c-.23.19-.47.2-.73.07-.07-.05-.09-.11-.05-.19z"/><path fill="#0F68A9" d="m6.01 28.11.13.27c-.27-.01-.42-.19-.57-.38l.06-.02c.19-.15.3-.04.38.13z"/><path fill="#C9953B" d="M31.85 18c-.01-.24-.1-.5.09-.71.03.24.04.48-.09.71z"/><path fill="#065294" d="m.37 13.98-.15-.17.04-.48c.19.19.09.43.11.65z"/><path fill="#BD7E16" d="M31.41 20.31c-.16-.17-.09-.35 0-.54l.04.31-.04.23z"/><path fill="#155E9C" d="M7.98 2.27c-.03.25-.13.37-.39.24l.39-.24z"/><path fill="#FEE276" d="M20.29.81c-.1.12-.18.11-.25-.03l.25.03z"/><path fill="#F1F5F5" d="m25.41 28.28-1.54 1.01a.2.2 0 0 1-.15.06.88.88 0 0 1-.17.02c-.29 0-.57.02-.76-.26-.2-.25-.43-.45-.74-.55-.4-.55-.17-1.18-.22-1.78-.03-.29 1.33-1.02 1.64-.93.68.18 1.25.6 1.9.85.3.12.36.41.09.75.26-.16.29-.4.29-.58.02-.54.19-1.01.5-1.46.31-.45.19-.71-.46-1.3-.08-.11-.1-.24-.16-.35a.16.16 0 0 0-.11-.05l-.21-.01a.2.2 0 0 0-.12.08c-.06.23-.07.47-.26.64a.2.2 0 0 1-.17.02c-.19-.13-.25-.37-.44-.51-.08-.07-.17-.15-.27-.19-.07-.02-.13-.01-.17.07-.06.38.05.79-.25 1.11-.29.11-.35-.16-.49-.3a.77.77 0 0 1-.07-.16.95.95 0 0 0-.21-.44.47.47 0 0 1-.06-.15l-.04-.28c-.07-.09-.08 0-.11.04-.08.25-.2.48-.24.74a.58.58 0 0 1-.06.17c-.08.15-.19.29-.16.47l.08.24c.15.31.16.61.01.93-.19.4-.43.56-.81.2a.7.7 0 0 1 .2.26c.03.17-.03.32-.08.47-.12.35-.01.72-.11 1.07-.07.2-.21.23-.39.17-.24-.13-.56-.04-.78-.26-.05-.09-.02-.17.02-.26l.14-.23.1-.14a.84.84 0 0 0 .26-.38l.01-.13c-.24-.09-.47-.03-.7.02l-.11.11a.92.92 0 0 0-.09.23c-.07.35-.23.62-.62.69a.37.37 0 0 1-.18-.02c-.34-.25-.64-.52-.49-1.01.06-.13.19-.18.29-.28a.83.83 0 0 0 .06-.21l.02-.16.03-.16c-.02-.37.26-.53.48-.74.05-.07.1-.12.17-.17l.13-.1c.14-.12.18-.33.37-.41a.3.3 0 0 1 .16.01c.05.01.1.09.15.01.01-.01-.05-.06-.09-.08a1.51 1.51 0 0 1-.18-.26c-.08-.17-.16-.35-.26-.51-.07-.1-.13-.22-.27-.23a.25.25 0 0 0-.12.08c-.08.2-.13.4-.09.62.04.25-.02.47-.31.55a1.3 1.3 0 0 1-.78-.05c-.34-.23-.12-.64-.28-.92 0 .44.05.88-.05 1.31a.4.4 0 0 1-.1.15c-.36-.18-.69-.47-1.14-.29-.24-.03-.32-.19-.29-.41.04-.29.28-.34.5-.39-.12-.13-.35-.06-.45-.23a.27.27 0 0 1 .01-.26c.22-.23.53-.1.78-.21.05-.07.01-.14-.01-.2-.3-.21-.7.04-.99-.2-.05-.37.29-.36.47-.51.15-.12.58-.01.42-.41-.14-.35-.27-.84-.77-.73-.4.09-.78.23-1.19.23-.16 0-.28.11-.3.29-.01.17.07.29.2.38.19.13.41.14.62.17.34.05.47.28.51.59.04.09.07.19.08.29l.01 1.62-.01.21c0 .07-.02.14-.04.21-.34.58-.41.59-.82.09-.03-.14.14-.21.13-.35a.24.24 0 0 0-.1-.1l-.13-.02c-.23-.04-.55.05-.64-.22-.09-.27.21-.39.38-.56.18-.21.39-.4.4-.7-.25-.2-.52-.11-.78-.09.16.11.38.03.52.17.11.22-.06.34-.15.5-.18.21-.3.5-.62.53-.24-.11-.46-.27-.71-.34-.1-.16-.12-.35.01-.48.26-.25-.15-.02-.08-.12-.04-.05-.06-.1-.05-.16.07-.13.25-.13.3-.28-.15-.17-.38-.08-.54-.2-.7-.3-1.47-.3-2.17-.58-.63-.25-1.07-.72-.95-1.34.04-.23-.08-.07-.08-.07-.18 0-.35-.04-.47-.18.1-.37.44-.4.72-.53.12-.06.34.04.35-.15.01-.14-.2-.18-.31-.27-.19-.26-.51.26-.69-.12-.13-.3.45-.45.16-.78-.08-.34.17-.51.35-.71.12-.11.23-.22.38-.28.1-.03.19-.02.29.01.23.11.37.27.28.54-.22.21-.81.29-.26.76.31.32.8.27 1.12.55.03.06.04.11 0 .17-.07.47.51.28.62.61.05.17.15.13.82-.22-.52 0-1.08.17-1.44-.4l.16-.1c.54-.09 1.09.06 1.63-.07.39-.11.76-.28 1.1-.52.15-.13.29-.26.41-.41l.16-.29c.15-.32.21-.64.06-.98a2.22 2.22 0 0 0-.13-.31c-.08-.21-.36-.33-.24-.61a.7.7 0 0 0 .11-.23c-.08.08-.06.21-.15.28-.23.11-.43 0-.63-.09a1.15 1.15 0 0 1-.36-.43c-.06-.17.01-.39-.22-.51-.01.18.23.33.06.52-.2.1-.37.01-.54-.09-.26-.22-.43-.47-.27-.83a.5.5 0 0 1 .09-.16c.11-.09.21-.19.19-.35v-.16l-.03-.15c-.26-.24-.66.01-.91-.26a.23.23 0 0 1 .02-.18c.25-.18.56-.12.83-.19.13-.01.25.02.37.07l.17.07c.24.11.5.17.74.27.13.07.26.14.29.3-.08.21 0 .43-.12.73.55-.26.33-.63.33-.93v-.19a.87.87 0 0 1 .09-.36c.08-.11.2-.27.29-.24.44.12.75-.24 1.13-.28.27.42.4.79-.08 1.19-.18.15 0 .47.08.69.07.2.24.36.3.58.02.09.03.18.01.27-.04.14-.12.26-.2.38-.03.05-.17.08-.08.16.05.04.15-.03.23-.05l.17-.05a1.7 1.7 0 0 1 .91.11.4.4 0 0 1 .22.19.37.37 0 0 1-.21.32c-.22.09-.45.07-.68.08-.31 0-.62-.03-.92.01-.07.03-.09.09-.09.17l-.01.15-.03.16c-.05.28-.04.56-.02.84.09.33-.15.57-.22.85.27.29.68.01.96.24a.7.7 0 0 1 .16.22l.11.14c.88.11 1.76.03 2.64.05l.1-.14c.15-.1.34-.12.5-.17.17-.04.34-.07.51-.13.16-.05.33-.1.48-.17.27-.11.48-.28.67-.49.22-.22.48-.4.63-.68.08-.11.18-.2.29-.29a.64.64 0 0 1 .14-.08c.21-.2.14-.49.24-.72.09-.47-.08-.96.14-1.42.42-.16.87-.19 1.18.16.35.39.47.9.26 1.41-.32.74.1 1.37.17 2.16.31-.26.23-.49.23-.68.01-.79-.02-1.57.02-2.36.01-.2-.13-.63.38-.49.2.8.05 1.62.1 2.42.02.42-.03.83.04 1.25.03.05.07.1.12.13.2.07.41.05.61.04l.17-.04a.36.36 0 0 0 .11-.14c.01-1.21.11-2.41-.06-3.61-.05-.5-.1-.99.03-1.48.05-.1.13-.16.24-.17.62.2 1.13.62 1.74.84.12.04.24.14.28.26.32.82.83 1.57.92 2.53.18-.03.43-.21.65.02.16.2-.05.44.07.65-.03.78-.37 1.49-.52 2.24.07.28-.11.46-.26.66-.46 1-.99 1.97-1.57 2.91a15.03 15.03 0 0 1-3.31 3.59z"/><path fill="#F0F4F5" d="M30.92 18.21c-.33-.04-.57.18-.93.36.32-.75.04-1.33-.35-1.86-.17-.23-.07-.5-.2-.74-.3-.57-.94-.59-1.39-.91-.19-.13-.42-.2-.54-.42.33-.29.74-.14 1.11-.18.23-.02.47.03.7-.06.04-.05.08-.1.1-.16.04-.25.02-.51.03-.76 0-.44.33-.62.61-.85.23-.15.48-.22.74-.09.03.95.58 1.84.32 2.82-.03.13.1.24.15.36.09.37-.01.76.08 1.14.05.21.02.41.03.62.01.07-.02.13-.07.18l-.24 1.1c-.18-.15 0-.4-.15-.55z"/><path fill="#C78B28" d="m31.31 17.55-.02-.67c-.1-.53.03-1.09-.15-1.61a.9.9 0 0 1 .03-.23c.05-.26-.04-.54.13-.78l.15-.01v3.3c-.05.06-.1.06-.14 0z"/><path fill="#C2821A" d="M30.26 21.77c-.03-.27.17-.44.26-.66.24.35.06.53-.26.66z"/><path fill="#BA7605" d="M31.31 17.55h.13l-.02.53h-.07l-.05-.42c-.01-.04-.01-.08.01-.11z"/><path fill="#F9FDFD" d="M30.92 18.21c.2.15.1.37.15.56.02.04.01.07-.02.1-.22-.19-.1-.44-.13-.66z"/><path fill="#F3F4F5" d="M7.72 3.04h.13c.37.29.3.7.27 1.08-.02.25-.11.49.01.78-.02-.24-.08-.45.06-.64.05-.05.1-.07.17-.07.08.06.12.14.15.24.08.47.2.92.53 1.29.12.15.22.32.32.48.07.1.14.21.22.3l.15.16.17.14a3.96 3.96 0 0 0 .74.35c.14.06.28.1.42.14.18.06.38.07.56.12.49.08.98.03 1.47.04.36.02.71 0 1.07.02.5.23.54.45.14.76-.3.23-.64.24-1 .22-.94-.04-1.86-.26-2.79-.26-.89 0-1.78-.02-2.64-.34-.32-.11-.58.09-.81.32-.36.38-.75.51-1.29.32-.65-.23-1.57.48-1.61 1.16-.01.16-.04.3-.09.44-.29.74-.16 1.12.59 1.48.47.23.77.55.68 1.08-.13.74.06 1.44.22 2.14.16.71.06 1.4-.07 2.09-.03.15-.07.32-.19.41-.5.37-.69.89-.75 1.48-.55-.06-.57-.48-.6-.89.09-1.37.08-2.74.01-4.1a.4.4 0 0 0-.14-.12 2.4 2.4 0 0 0-.8-.02.3.3 0 0 0-.19.18c-.12.61.09 1.24-.13 1.84a1.1 1.1 0 0 1-1.03.26c-.5-.1-.46.15-.46.48.01.35.04.69.09 1.04.04.24.06.48-.14.67-.11.04-.21.03-.3-.05-.11-.18-.07-.38-.08-.57-.17-1.08.1-2.16.05-3.24-.16-.2.17-.35.07-.55-.07-.22-.11-.44.03-.65.14-.04.15-.14.12-.25.12-.35.05-.75.28-1.07l.41-1.18c.7-1.59 1.39-3.18 2.67-4.42.27-.25.43-.64.72-.93.8-.81 1.71-1.46 2.59-2.16z"/><path fill="#2A4349" d="M25.41 28.28c-.04-.13.03-.16.14-.16l-.14.16z"/><path fill="#003A64" d="m23.71 29.31.16-.02a.15.15 0 0 0-.04.11l-.12.02c-.03-.02-.04-.05-.03-.07l.03-.04z"/><path fill="#F3F4F5" d="m7.59 28.79-.18-.16c-.17-.1-.36-.17-.47-.35l-.26-.19c.26-.37.82-.48 1.35-.24.35.16.7.33 1.02.58.29.23.48.14.49-.26.02-.47-.06-.83-.6-1.01a3.1 3.1 0 0 1-1.5-.87c-.22-.26-.62-.28-.97-.32-.37-.04-.56.15-.67.48-.07.2.02.45-.17.62-.38-.02-.48-.42-.77-.56-.16-.44-.49-.73-.82-1.04-.21-.11-.28-.32-.37-.52l-.28-.48c-.16-.05-.3-.11-.25-.32l-.25-.4c-.21-.13-.28-.35-.38-.56.03-.23-.14-.4-.2-.61.08-.18.25-.26.39-.37.29-.19.5.03.73.16.12.15.23.31.45.3.61-.08 1.15.13 1.69.34.2-.05.35-.16.46-.34.16-.26.41-.3.68-.23a.4.4 0 0 1 .15.1c.1.32 0 .71.29.97.21.45-.08.99.23 1.42l.3.15c.24.08.48.12.7-.04l.23-.26c.19-.25.11-.55.12-.82.02-.43.2-.65.65-.6.1.02.17.07.22.16.02.06.02.12 0 .18-.17.2-.28.39-.02.6.13.12.3.16.44.26.31.23.25.43-.08.59.23.04.39-.18.61-.16.16.02.28.13.42.21.29.14.63 0 .9.2.12.23-.07.28-.2.29-.76.04-.74.55-.68 1.09.11.43-.01.87.05 1.3l.12.09c.07.07.1.16.16.23.02-.07-.05-.11-.05-.17-.13-.43-.22-.85-.02-1.28.02-.07.08-.13.1-.2a.11.11 0 0 0-.11.03.29.29 0 0 1-.16-.02.29.29 0 0 1-.12-.24c.34-.66.72-.68 1.15-.06-.01.41-.08.81.02 1.21l.07.16c.14.32.4.35.7.3.29-.05.42-.23.46-.51.22-.38-.11-.83.17-1.2.3-.05.34.2.44.38.06.37.44.52.59.83-.29.06-.03.29-.12.41-.31.24.21.17.12.33-.03.15-.15.19-.27.21-.56.09-.92.71-.69 1.18.09.19.26.11.4.13.73.07 1.47.15 2.18.34.15.04.3.07.38.22-.06.59-.54.25-.81.38-.29-.07-.59.02-1.01-.08.36.14.62.03.86.11.58.08 1.15-.12 1.73-.07.23.02.3-.13.28-.34.09-.36.43-.39.67-.56.3-.33-.13-.44-.19-.67-.11-.24-.22-.49.04-.71a.67.67 0 0 1 .46-.1c.2.16.35.43.63.04.16-.23.49-.08.74-.07.24.05.49.02.72.12.49.46 1.05.86 1.36 1.49a.22.22 0 0 1-.12.13c-.23.1-.52.05-.7.29l-.65.15c-.2-.19.15-.33.06-.52-1.08.21-1.74.48-2.1.85a1.5 1.5 0 0 1-.14.24.54.54 0 0 1-.68.14c-.28-.22-.55.02-.83.01h-1.55c-.31-.05-.62-.19-.94-.05a.86.86 0 0 1-.27.05.44.44 0 0 1-.16-.06c-.18-.19-.44-.1-.65-.19a.26.26 0 0 1-.11-.14c.06-.25.34-.15.54-.36-.68-.09-1.26-.44-1.92-.16-.3.12-.6-.03-.9-.02a.34.34 0 0 1-.17-.05l-.21-.03a.92.92 0 0 1-.44-.25l-.38-.15c-.27-.03-.48-.21-.71-.31-.15-.09-.33-.1-.47-.2-.2-.37-.63-.38-.95-.57z"/><path fill="#2386BB" d="M2.48 23.19c.22.12.3.34.38.56-.25-.01-.38-.15-.39-.4l.01-.16z"/><path fill="#2184BE" d="M3.65 24.95c.16.14.32.29.37.52-.32-.03-.38-.26-.37-.52z"/><path fill="#167FBC" d="m3.12 24.15.25.32c-.31.08-.39-.04-.25-.32z"/><path fill="#F3F4F5" d="M2.73 22.3c-.08.2-.25.27-.45.29l-.08-.02c-.16-.13-.15-.37-.29-.52-.03-.14-.16-.24-.12-.4-.01-.25-.1-.47-.24-.67l-.26-1.06c-.22-.43.14-.56.35-.83.18-.23-.41-.5-.19-.87.11-.19.22-.4.45-.45.26-.05.39.16.5.35.16.3.38.46.73.45.34.25.59.6.89.89.27.41.86.39 1.12.83l-.04.04c-.08-.03-.14.03-.06.02.42-.03.85.18 1.27-.02.2-.12.38-.27.6-.36.16-.06.33-.08.48-.17.15-.09.28-.23.48-.21.17.04.25.17.31.32.03.09.03.18.01.28-.08.22-.18.44-.22.68-.05.17-.1.34-.17.5-.1.18-.2.35-.25.54-.08.22-.18.44 0 .67.35.41.86.68 1.06 1.23.08.34-.06.66-.12.98-.04.09-.1.17-.2.2-.49-.16-.03-.71-.38-.92-.18.27.3.73-.23.92a.31.31 0 0 1-.2-.19c-.12-.38-.01-.77-.11-1.15-.09-.06-.01-.33-.25-.2l-.06.04c-.61-.16-.22-.6-.26-.92.04-.07.06-.13-.02-.18.02.06.07.11.02.18-.63-.21-.7.59-1.18.66-.24-.31.41-.57.06-.88-.24-.21-.58-.15-.84-.32-.35-.23-.69-.46-1.07-.63-.33-.15-.59-.04-.81.22-.17.18-.51.33-.23.68z"/><path fill="#F0F4F5" d="M3.12 18.6c-.47.41-.6-.04-.81-.32-.12-.16-.14-.57-.46-.34-.2.15-.56.4-.15.78.16.15.56.53-.13.61-.31.04-.28.34-.28.58-.23-.26-.03-.71-.38-.92-.04-.03-.06-.06-.06-.1 0-.04.01-.06.02-.06.16-.23.06-.56.28-.76-.02-.83-.24-1.65-.09-2.54.47.48 1.02.11 1.53.17.33.4.09.89.22 1.32l.04.18c.02.19.03.37-.03.56-.02.08-.03.14-.02.05.03.01.07 0 .1-.05.05 0 .1.01.14.04.09.11.13.25.18.38l.03.18c-.02.1-.05.18-.13.24z"/><path fill="#1D70B0" d="M.25 16.75v-1.06c.33-.04.37.21.41.43.04.23.02.46.05.69a.3.3 0 0 1-.07.2c-.21.03-.26-.17-.39-.26z"/><path fill="#0162A2" d="m.63 17.02.01-.13c.07-.04.13-.03.18.04.03.21.01.43.01.64-.07.17.17.45-.19.51l-.01-1.06z"/><path fill="#1D70B0" d="M.64 18.07c.19-.15.09-.38.15-.56.06 0 .09.03.1.09l.04.47c.06.09.06.18.01.27-.06.04-.11.04-.16-.01-.12-.05-.14-.15-.14-.26z"/><path fill="#0268B0" d="M.77 18.34h.11c.19.16.15.34.05.52l-.01.13c-.25-.17-.11-.43-.15-.65z"/><path fill="#F1F5F5" d="M31.29 15.03v.14c-.12.16.02.37-.12.52-.33-.05-.29-.3-.24-.5.16-.58.19-1.11-.2-1.62-.23-.31.28-.72-.08-1.04-.17-.13-.21-.33-.27-.51-.14-.46-.29-.79-.93-.74-.63.04-.96-.56-1.15-1.09-.18-.52-.28-.9-1.01-.76-.55.11-.72-.54-.99-.91-.26-.37-.14-.8.17-1.07.47-.41.86-.84.91-1.5 0-.03.07-.03.12-.01l.52.54.65.81.79 1.3c.04.31.26.53.4.8l.89 2.28.21 1.15.09.37c.13.21-.02.47.11.68l.03.35c.12.25-.02.55.1.81z"/><path fill="#F2F7F8" d="M10.86 30.33c.31-.27.61.14.92.01.14.01.27.06.26.22-.01.12-.13.15-.24.16a.49.49 0 0 1-.28-.09l-.25-.03c-.14-.09-.36-.05-.41-.27z"/><path fill="#004A88" d="m9.03 29.59.67.34c-.08.17-.18.04-.27.03-.14-.09-.31-.12-.39-.29l-.01-.08z"/><path fill="#19578C" d="m11.52 30.64.23-.02c.09.09.32 0 .3.24l-.01.15c-.16-.15-.48-.05-.52-.37z"/><path fill="#18548A" d="M10.08 30.08c.18.02.34.07.44.25-.2.02-.41.05-.44-.25z"/><path fill="#185990" d="M10.86 30.33c.12.12.33.09.41.27-.23.02-.43-.01-.54-.25a.5.5 0 0 0 .13-.02z"/><path fill="#004483" d="M9.03 29.59v.08a.58.58 0 0 1-.52-.26c.2-.04.37.05.52.18z"/><path fill="#F0F4F5" d="M31.29 15.03c-.21-.26-.08-.55-.1-.83a.4.4 0 0 0 .09.05l.01.78zM31.16 13.85c-.2-.2-.09-.45-.11-.68.14.21.12.44.11.68z"/><path fill="#F1F5F5" d="m8.26 4.2-.04.98c-.19-.36-.44-.48-.32-.82.17-.45.07-.89-.05-1.33.22-.31.54-.45.88-.54.21-.09.45-.15.56-.39l.13-.15c.38-.04.73-.19 1.05-.39.21-.07.49-.02.53-.35.27.14.48.01.68-.15l.22-.03c.58-.07 1.11-.37 1.7-.38a8.92 8.92 0 0 1 3.98-.14c.22.01.45-.01.67.07.19.09.43.03.6.19.34.12.68.18 1.04.16.73.44 1.59.56 2.35.91l1.71.95c.05.1.15.11.25.12.3.37.8.49 1.09.88.02.35-.22.24-.4.22-.18-.03-.37-.04-.45.16-.09.21.09.32.23.42.49.34.91.75 1.37 1.12.51.41.54.76.18 1.3-.54.8-.25 1.95.53 2.47.86.57 1.82 1.03 2.36 1.99.17.29.41.51.71.66.21.11.32.29.28.54-.03.38-.67.36-.55.84a.66.66 0 0 1-.33.12c-.74.03-1.48.01-2.22.01-.84-.01-1.69.02-2.53 0-.38-.01-.65.07-.6.54.01.06.03.13.06.18.34.21.72.07 1.08.11.3.03.61-.04.86.19.04.05.07.11.08.18-.39.46-.83.69-1.47.46-.55-.2-.62-.11-.63.52-.19-.03-.28.17-.45.19-.19-.09-.26-.28-.31-.47a2.07 2.07 0 0 0-1.01-1.28l-.24-.12c-.37-.22-.79-.32-1.18-.49l-.13-.13c-.79-.02-1.57.01-2.36 0-.26 0-.53.04-.76-.14-.14-.23.05-.26.19-.29.3-.07.61-.03.94-.04-.17-.14-.36-.18-.52-.3-.55-.43-.56-.62-.07-1.13.11-.12.34-.23.09-.4-.26-.18-.22-.33-.03-.53.07-.08.05-.1-.2-.19-.14-.09-.09-.21-.06-.32a.6.6 0 0 1 .09-.15c.18-.14.31-.31.38-.53.07-.13.17-.23.27-.34.22-.25.41-.53.76-.61.33.03.65.01.97-.06.79-.17.92-.35.8-1.16.04-.14-.02-.28.05-.36.57-.69.72-1.7 1.6-2.16.22-.11.59-.18.4-.53-.17-.3-.41-.05-.61.07-.2.12-.42.32-.56-.07-.06-.2.1-.37.09-.58-.47.05-.85.31-1.27.48-.22.11-.44.18-.67.26-.34.12-.7.18-1.01.37a.64.64 0 0 1-.18.06.58.58 0 0 1-.19.03c-.25.01-.49 0-.73.08-.18.05-.37.08-.55.14-.25.05-.5.13-.76.17l-.3.02c-.27 0-.54-.01-.8.08-.35.04-.7.13-1.05.11-.65-.12-1.3.01-1.95-.09a2.76 2.76 0 0 0-.69-.11c-.19-.01-.37-.08-.55-.11l-.18-.02a1.37 1.37 0 0 1-.34-.07 1.05 1.05 0 0 1-.23-.13c-.17-.1-.37-.15-.55-.24-.06-.01-.11-.04-.16-.07-.3-.17-.61-.32-.95-.41-.16-.11-.27-.27-.4-.41-.05-.03-.11-.07-.18-.03-.05.1-.03.2-.03.3l-.01.09z"/><path fill="#F3F4F5" d="M30.13 12.66c-.3-.5-.93-.67-1.22-1.2-.57-1.03-1.66-1.41-2.55-2.03-.36-.25-.65-.5-.52-1.07.13-.55-.2-1.18.42-1.64.19-.14.13-.56-.12-.77L24.68 4.8c-.23-.18-.62-.34-.5-.67.13-.36.48-.46.85-.22.1.07.2-.03.26-.13l.37.18c.33.43.78.72 1.17 1.07l.36.37.31.51c-.02.64-.21 1.13-.83 1.48-.47.26-.5.87-.09 1.24.27.24.32.92 1.06.54.29-.15.73.34.79.88.07.65.74 1.09 1.36.96.33-.07.48.21.56.43.13.34.3.68.3 1.07-.17.07-.35.11-.52.15z"/><path fill="#006EB4" d="M1.79 21.65a6.4 6.4 0 0 0 .19.47l-.04.04a1.54 1.54 0 0 0-.13-.12c-.02-.13-.2-.25-.02-.39z"/><path fill="#156FAA" d="M.75 16.89H.64c-.2-.16-.12-.39-.13-.59-.01-.24 0-.48-.26-.59v-1.19h.14c.25-.08.15.2.26.26.02.18-.05.38.11.53.13.52.12 1.05-.01 1.58z"/><path fill="#F0F4F5" d="M.75 16.89.74 15.3l.08-1.04c.16 1.11.05 2.23.06 3.34l-.1-.09-.03-.62z"/><path fill="#1E6397" d="M1.32 11.75c-.04.37-.12.73-.28 1.07l-.01-.28c0-.31-.01-.61.29-.79z"/><path fill="#1D70B0" d="m.63 14.77-.26-.26v-.53c.37.18.24.51.26.79z"/><path fill="#00518F" d="m.91 13.07-.03.65c-.16-.23-.19-.45.03-.65z"/><path fill="#16598B" d="M15.18 31.25c.61.06 1.23.06 1.84 0 .14-.06.27-.09.39.03a6.1 6.1 0 0 1-2.62 0c.12-.11.26-.08.39-.03zM18.34 31.54c-.21.13-.43.13-.66.12l-.11-.3c.06-.09.13-.16.25-.14l-.01.05c.13.19.41.07.53.27z"/><path fill="#F3F4F5" d="m15.18 31.25-.39.03-.13-.01c-.14.06-.28.12-.39-.05.31-.12.61-.15.91.03zM17.81 31.23l-.25.14c-.02-.08-.07-.11-.15-.08l-.39-.03c.26-.19.52-.16.79-.03z"/><path fill="#003B79" d="m14.27 31.23.39.05v.12h-.65c-.04-.02-.05-.04-.04-.07l.03-.04.27-.06z"/><path fill="#EFF7F8" d="M9.29 2.1c-.02.37-.26.42-.56.39.13-.22.37-.26.56-.39z"/><path fill="#2481BB" d="m1.94 22.15.01-.12c.15.15.22.33.26.53-.28-.01-.26-.22-.27-.41z"/><path fill="#00428D" d="M18.34 31.54c-.19-.05-.48.09-.54-.26.2.01.38-.03.53-.16.23-.19.52-.17.78-.26.44.01.84-.39 1.31-.13v.28l-.13.12c-.55.02-1.05.26-1.57.4l-.38.01z"/><path fill="#F1F5F5" d="M5.61 27.06c.08-.23-.13-.42 0-.69.33-.68 1.43-.86 1.97-.18.43.55 1.04.66 1.59.88.36.14.5.28.51.62 0 .15.02.31 0 .46-.03.19.22.51-.1.56-.21.04-.48.12-.73-.19-.5-.64-1.5-.79-2.18-.43-.25-.05-.34-.28-.5-.43a.26.26 0 0 1-.15-.07 5.33 5.33 0 0 1-.4-.42l-.01-.11z"/><path fill="#187AC0" d="M6.13 27.58c.03.01.04.04.04.07l-.16.46-.38-.13.12-.4a.7.7 0 0 1 .38 0z"/><path fill="#006DB6" d="M6.13 27.58c-.13.09-.25.08-.38 0l-.13-.41c.26.02.41.18.51.41z"/><path fill="#F1F5F5" d="m12.05 30.86-.3-.24c.43-.05.01-.18.03-.27.13-.27.35-.31.6-.22.35.14.71.2 1.08.21.26.01.44.09.44.36 0 .29-.26.13-.39.18l-.29.12c-.08.08-.17.09-.26.02l-.91-.16z"/><path fill="#0E548D" d="m12.96 31.02.26-.02c.03.03.07.03.11.01.21.14.52-.03.68.23l-.01.05.01.11c-.31-.24-.83.11-1.05-.38z"/><path fill="#FCE58F" d="M17.68.63c-1.36-.2-2.71-.03-4.06.03l.13-.13c.27-.16.57-.12.86-.17.07-.03.13-.02.18.02l.39-.01c.79-.27 1.58-.02 2.37-.01l-.01.04c.08.06.2.09.14.23z"/><path fill="#086595" d="M14.68.4c-.3.12-.62.15-.94.14.05-.11.15-.14.26-.14.23-.1.46-.12.68 0z"/><path fill="#015A9E" d="m14.68.4-.67-.01c0-.04.01-.07.03-.1.26.01.53-.12.76.1l-.05.02-.07-.01z"/><path fill="#00589E" d="m6.94 28.28.47.35h-.34l-.13-.35z"/><path fill="#0056A5" d="M16.76.14v.09c-.52.19-1.04.1-1.56.04l-.27-.12a8.61 8.61 0 0 1 1.83-.01z"/><path fill="#F3F4F5" d="M20.43 30.73c-.46-.05-.83.39-1.31.25-.26-.03-.55.11-.78-.11.33-.24.51-.81 1.1-.47 0-.17-.03-.35.01-.5.03-.11.3-.19.31-.17.12.88.5.04.74.11.14.04.33-.02.37.15.03.12.09.31-.14.36-.13.03-.16.13-.17.25l-.13.13z"/><path fill="#085A91" d="M21.89 30.09a.2.2 0 0 0 .11-.03c.1-.04.17 0 .25.06a.3.3 0 0 1 .05.07c.02.06 0 .11-.06.14-.28.14-.55.33-.89.3l-.01-.17c.03-.35.37-.23.55-.37z"/><path fill="#F2F7F8" d="m21.89 30.09-.55.37-.06.01-.06-.02c-.01-.54.41-.3.67-.36z"/><path fill="#B99140" d="M22.24 30.34c.02-.04.03-.08.02-.12.14-.18.3-.28.53-.13l.03.01-.28.25-.3-.01z"/><path fill="#FADA7A" d="M18.86.78c-.18 0-.38.03-.54-.1-.05-.03-.06-.06-.04-.09.02-.03.03-.04.05-.04l.13-.05.65.07c-.09.06-.17.14-.25.21z"/><path fill="#316483" d="m23.3 29.92-.49.07a.3.3 0 0 1-.2-.19.3.3 0 0 1 .06-.18c.21-.17.45-.24.71-.14l.07.06-.15.38z"/><path fill="#003771" d="M23.71 29.31v.1c-.05.11-.15.13-.26.12l-.01.01c-.07-.15.02-.2.14-.23h.13z"/><path fill="#225C82" d="m22.67 29.82.13.16-.02.1-.53.13v-.01c-.09-.38.12-.43.42-.38z"/><path fill="#4892AB" d="m15.19.26 1.56-.04.78.03.01.1-2.37.01a.25.25 0 0 0 .02-.1z"/><path fill="#F2D479" d="m18.33.54-.01.13-.65-.04-.13-.23c.28-.03.56-.04.79.14z"/><path fill="#F1F5F5" d="m18.33 17.02-.28-.01a.57.57 0 0 1-.04-.22c.06-.76-.11-1.53.12-2.28.28-.39.69-.28 1.07-.31h.89c.14.01.28.02.42.06.46.14.91.29 1.3.58.69.63.96 1.41.87 2.33l-.02.2c-.03.16-.1.3-.16.44-.11.24-.17.51-.36.7l-.17.2-.12.14a2.2 2.2 0 0 1-.85.43c-.28.03-.55.15-.83.16-.62-.04-1.25.14-1.85-.13-.31-.54-.14-1.12-.14-1.68a.45.45 0 0 1 .21-.31c.34-.17.03-.21-.06-.3z"/><path fill="#F3F4F5" d="m23.59 29.32-.14.23c-.28-.03-.52.08-.78.16-.33-.41-1.05-.43-1.07-1.13a1.4 1.4 0 0 1 0-.29c.16-.55.09-1.1-.06-1.64l-.24-.22c-.06-.05-.19-.08-.1-.19.04-.05.15-.07.23-.06.2.03.3.49.57.18.24-.29.37-.64.16-1.03-.02-.04-.01-.09-.02-.13.31-.3.67-.31 1.06-.2.14 0 .16.33.36.12.11-.01.21.02.31.04l.22.02a.39.39 0 0 0 .2-.08c.1-.19.08-.44.28-.58.05-.03.11-.03.17-.02.16.08.23.25.36.37.12.11.22.26.41.26a.21.21 0 0 0 .11-.1c.09-.33-.08-.72.2-1.01.96.63 1.01.88.35 1.84-.15.22-.22.46-.21.74.01.58-.17 1.05-.8 1.21-.03-.06-.07-.11-.06-.13.49-.7.49-.69-.37-1.04-.26-.1-.48-.29-.73-.42-.5-.26-1.02-.47-1.39.18-.16.27-.69.15-.63.43.12.56-.13 1.14.18 1.66.29.14.45.46.79.53.05.43.49.02.64.3z"/><path fill="#F0F4F4" d="M10.86 26.79c-.01-.13 0-.26-.02-.39-.08-.52.01-.88.65-.8.15.02.3.02.41-.12l.04-.09a.3.3 0 0 1 .25-.1c.42.24.85.52 1.3.06.2-.05.36-.12.3-.38-.03-.14-.04-.3.09-.42.38-.3.49.05.66.27.08.15 0 .31.04.46.02.05.05.09.09.12.29.11.65-.06.9.21.22.37.44.55.66 0 .32-.28.73-.11 1.08-.2.04-.02.05-.06.01-.1-.02-.02-.03-.04-.05-.03-.14-.07-.31-.06-.39-.22.51-.27.86-.13 1.05.42l.06.07c.1.33-.15.41-.36.53-.21.11-.38.3-.6.39-.38.08-.77-.14-1.16.03l-.16.09a.55.55 0 0 1-.17.05.63.63 0 0 1-.27-.03c-.26-.09-.51-.28-.78-.04l-.19.16c-.14.08-.27.19-.45.2-.15-.11-.1-.43-.4-.39-.04.04-.07.08-.12.11l-.14.1c-.18.41-.05.84-.07 1.26-.02.11-.08.17-.17.22-.55.27-.71-.13-.89-.51-.05-.16-.04-.33-.04-.5v-.7c-.42-.45-.77-.39-1.05.15.07.12.01.14-.11.12z"/><path fill="#F1F4F4" d="M17.83 10.42c.19.11.34-.38.54-.05.26.42-.3.36-.38.61.18.1.49-.02.52.26.03.23-.19.32-.34.44-.52.41-.48.68.15 1.03.24.13.54.11.78.39-.58.18-1.14.05-1.68.09l-.13.2a.57.57 0 0 1-.11.11.91.91 0 0 1-.13.08c-.09.03-.19.09-.29.01-.26.28-.44.76-.96.36-.04-.03-.21.11-.32.17-.09-.04-.13-.12-.16-.21-.06-.23-.08-.47.02-.7l.13-.32c.04-.11.1-.21.18-.29.14-.15.28-.29.44-.41.18-.1.27-.28.34-.46.11-.18.26-.31.41-.45.17-.12.26-.29.36-.46l.16-.2c.13-.12.28-.21.47-.2z"/><path fill="#F2F4F4" d="M23.84 15.83c.04-.26-.36-.54-.14-.67a.9.9 0 0 1 .95-.01c.29.19.61.2.86-.13.1-.13.27-.11.43-.11.12.4.27.79 0 1.19-.24.26-.12.59-.12.88-.02.9 0 1.79-.01 2.69 0 .1-.02.24-.08.3-.13.11-.23-.05-.33-.11-.26-.15-.33-.4-.31-.67.01-.13.03-.25-.01-.38-.17-.48-.33-.93.05-1.44.17-.22 0-.6-.14-.92-.16-.38-.32-.41-.67-.33-.1.02-.27-.18-.46-.15-.03-.03-.04-.06-.03-.09-.01-.03 0-.05.01-.05z"/><path fill="#F2F4F3" d="M9.88 21.12c.25-.02.51.17.78-.08-.02.26-.41.33-.2.67.23.37.39.76.89.86.64.12 1.23.45 1.91.4.16-.01.22.11.24.25-.14.19-.41.13-.56.29l-.13.09c-.14.08-.22.21-.34.32a.26.26 0 0 1-.15.01 1.2 1.2 0 0 1-.28-.27l-.08-.14c-.26-.19-.54-.14-.82-.08a2.4 2.4 0 0 0-.21.13c-.09.07-.18.13-.29.18-.14.04-.29.09-.35-.12.21-.23-.11-.23-.15-.35-.05-.07-.09-.18-.16-.19-.75-.13-1.22-.67-1.74-1.15-.05-.19.06-.29.19-.37l.33-.14c.19-.08.37-.17.55-.27.11-.06.22-.11.34-.13.08-.02.16.01.23.09z"/><path fill="#F1F3F4" d="M11.25 18.85c.06-.25-.14-.36-.27-.52a.25.25 0 0 1 .07-.3c.4-.33.34-.69.1-1.08.01-.15.08-.24.22-.29.51.01.97.2 1.45.31.29.13.59.23.89.33.21.08.42.14.62.25.28.18.52.39.58.75.01.1.02.19.01.29-.03.23-.14.42-.29.6-.07.07-.15.12-.25.12-.33-.08-.34-.31-.26-.58.07-.22.08-.42-.09-.61-.21-.18-.42-.21-.63 0a.26.26 0 0 1-.08.13c-.11.08-.24.11-.36.17l-.36.17c-.12.06-.25.11-.36.18-.16.22-.43.25-.64.39-.18 0-.31-.1-.35-.31z"/><path fill="#F3F5F4" d="M16.24 23.22c-.1-.28-.27-.44-.59-.4-.26.04-.45-.08-.66-.22-.25-.18-.2-.42-.18-.65.02-.29.27-.24.45-.27.38-.07.76-.02 1.15-.26.36-.22.68.13.86.49l.32.72c-.4.21-.88.24-1.22.59-.05.05-.09.05-.13 0z"/><path fill="#085796" d="m21.08 19.16.77-.42.07.03.11.12c.08.11.17.21.19.36-.02.29-.29.32-.47.46-.17.09-.4.06-.53.23-.14.2-.35.09-.52.13h-.1c-.24-.01-.48.01-.72.04-.74-.03-1.49.08-2.23-.07-.33-.24-.12-.45.04-.66.11-.1.23-.18.39-.14.07.07.12.17.22.22.54.03 1.07-.01 1.61.02-.53-.02-1.07 0-1.6-.02a.26.26 0 0 1-.15-.14c.04-.07.1-.09.18-.04.66.09 1.31.05 1.97.02.27.07.52-.06.77-.14z"/><path fill="#0B5794" d="M12.17 20.19c-.4-.18-.92-.06-1.19-.52.25-.26.71-.16.91-.52.76.04 1.51.13 2.26.13.52.34.23.67-.02.99-.61.1-1.21.08-1.81-.01.38-.27.79-.08 1.18-.13-.44.01-.89-.07-1.33.06z"/><path fill="#126FB0" d="M11.25 17.04c.45.27.53.56.08.91-.13.1-.23.25-.34.38l-.24.02c-.61-.14-.76-.74-1.13-1.12.55-1.21.79-1.24 1.63-.19z"/><path fill="#08518E" d="M14.13 20.27c-.04-.31.3-.56.13-.89-.02-.11.02-.16.13-.13.09.02.13-.04.16-.11.27-.05.46-.15.38-.48-.01-.15-.02-.3.03-.45.17-.3.38-.55.72-.66l.13.26c-.02.4.06.81-.1 1.2-.01.1.01.21-.12.25-.19.07-.41.12-.39.39-.26.39-.7.45-1.07.62z"/><path fill="#F3F4F5" d="M19.91 28.5c-.33.12-.95-.22-.78.61-.33-.17-.51-.34-.54-.63-.3-.66-.25-1.25.14-1.58-.14.54.27.78.54 1.1l.08.1-.08-.09c.28-.21.55-.43.51-.84.31.04.77-.22.79.4l-.02.16c-.07.03-.15.02-.21.07a.75.75 0 0 0-.15.16l-.15.36c-.02.05-.04.1-.08.14l-.05.04zM21.72 28.59c.09.26.13.56.5.56s.3.37.45.56v.11c-.16.11-.45.07-.42.39l-.25-.14c-.42-.49-.97-.86-1.31-1.43.05-.08.14-.13.21-.19l.08-.11a.28.28 0 0 1 .1-.09c.09.01.18.15.26 0 .05-.04.1-.05.16-.01.12.08-.04.35.22.35z"/><path fill="#F4F5F2" d="M13.47 15.55c-.14.3-.01.55.14.8a.28.28 0 0 1-.17.09c-.53-.08-1.07-.12-1.47-.54a.87.87 0 0 1-.19-.37 2.63 2.63 0 0 1-.01-.84.7.7 0 0 1 .08-.2.74.74 0 0 1 .47-.24c.15-.01.29.01.38.14v.11c.06.05.14.08.18.15a.2.2 0 0 1-.03.15l-.12.1c-.08.06-.17.12-.21.21.01.22.23.21.35.31.18.16.41.05.6.13z"/><path fill="#1579BD" d="M10.48 18.61c-.08.25-.47.31-.39.65.01.36-.21.5-.51.58-.37-.08-.34-.53-.62-.69-.19-.24-.13-.43.12-.58.34-.13.1-.47.23-.67a.5.5 0 0 1 .09-.16c.11-.08.26-.13.33.01.19.34.57.52.75.86z"/><path fill="#0F5F9D" d="m13.48 16.38.13-.03c.17.05.33.19.52.13.09-.07.18-.07.26.02.05.16.3.16.27.37.05.29-.18.38-.36.5-.18.06-.38.02-.57.05-.29-.12-.64-.08-.91-.29-.13-.56.29-.63.66-.75z"/><path fill="#0A5694" d="m14.27 17.28.4-.41.64.16c.08.21.35.28.38.52-.09.33-.43.42-.63.65-.1-.01-.09.17-.21.12-.05-.35-.37-.47-.57-.69-.11-.11-.12-.23-.01-.35z"/><path fill="#C7861D" d="m18.07 16.9-.02.11-.24-.15c-.15-.09-.38.03-.49-.18-.12-.42-.13-.83.02-1.24.21-.24.42-.52.78-.22 0 .56.07 1.12-.05 1.68z"/><path fill="#CD8A19" d="M22.13 19.15c-.11-.07-.23-.13-.24-.29a.2.2 0 0 0 .04-.12v-.14a.2.2 0 0 1 .06-.11l.37-.69c.4.07.51.43.72.69 0 .47-.5.5-.7.81-.12.03-.17-.08-.25-.15z"/><path fill="#0C63A5" d="m9.88 21.12-.32.01c-.16-.19.43-.45-.05-.62-.01-.13.05-.24.12-.35.09-.09.18-.18.32-.1.22.07.43-.51.66-.01.09.21.71.42.01.64-.31.06-.49.3-.74.43z"/><path fill="#F1F3F4" d="M12.18 20.3c.58.39 1.21.29 1.95.21l-1.4.92c-.01-.39-.14-.65-.55-.74-.26-.07-.39-.26 0-.39z"/><path fill="#0A5794" d="m16.34 17.82.04-.13c.17-.11.26-.02.34.12.09.24.07.49.07.74 0 .1 0 .2-.02.3.24.01-.51.33.09.27.32-.03.35.29.29.56a.38.38 0 0 1-.29.08c-.13-.02-.31-.22-.34.1-.2-.06-.48.15-.59-.19.09-.26.52-.39.3-.78.2-.35.02-.72.11-1.07z"/><path fill="#F0F4F5" d="m16.76 13.59.26-.13c.29.88.3 1.76 0 2.64-.12-.36-.65-.51-.46-1.03.07-.2-.3-.09-.4-.33.93 0 .8-.56.6-1.15z"/><path fill="#115C9A" d="M11.78 19.24c.02.7-.54.28-.81.42-.34-.03-.44-.24-.31-.52.1-.23.24-.53.59-.3l.39.26c.12-.01.16.04.14.14z"/><path fill="#F7FAF6" d="M25.93 16.09c.06-.4-.18-.79 0-1.19v-.13c-.07-.12-.09-.23.07-.3.08.03.14.08.18.16.14 1.71.05 3.42.05 5.13 0 .16-.07.3-.18.41-.24-.41-.1-.85-.11-1.28-.02-.92-.01-1.86-.01-2.8z"/><path fill="#1376B9" d="M10.48 18.61c-.34-.17-.68-.33-.8-.75-.05-.16-.16-.08-.25-.05-.24-.36-.19-.46.26-.5.52.18.64.76 1.06 1.03l-.27.27z"/><path fill="#095A9B" d="M17.15 19.66c-.12-.18-.07-.49-.48-.43-.22.03.01-.24-.05-.36.42-.4.89-.19 1.18.53-.07.18-.28.3-.26.53a.56.56 0 0 1-.14.2.41.41 0 0 1-.13.1c-.06.02-.1-.01-.11-.07l-.03-.23a.23.23 0 0 1-.07-.14c.03-.06.05-.1.09-.13z"/><path fill="#EFDBA3" d="M26.05 20.19v-5.67c-.04-.07-.02-.13.05-.16.11.02.17.11.21.21.06.21.05.42.05.64v.55c-.01.3.02.6.01.9-.01.5.02 1 0 1.5v1.27c-.02.27.02.56-.2.78-.03-.02-.07-.02-.12-.02z"/><path fill="#D8B97C" d="m27.24 20.19-.13-.01c-.17-.19-.17-.42-.17-.65v-3.54c.01-.45-.02-.9.03-1.35.03-.11.07-.21.17-.27.08-.02.14 0 .16.08a.22.22 0 0 1-.06.19l.01 1.59c.08 1.32.11 2.64-.01 3.96z"/><path fill="#CA8A20" d="m15.45 13.86.03.26-.05.4c-.18.18-.4.15-.61.08a3.26 3.26 0 0 1-.93-.27c.05-.25.33-.2.45-.36.2-.21.46-.29.73-.34.18-.02.29.08.38.23z"/><path fill="#F0F4F4" d="M19.64 25.44c-.1.32-.54.42-.52.81-.31.24-.65.21-.99.09-.41-.72.3-.56.58-.75.12-.08.27-.13.4-.19l.22-.11c.05-.02.1-.02.15-.02.08.04.12.11.16.17z"/><path fill="#074884" d="M16.89 25.05c.18.08.41-.08.55.15-.24.48-.65.19-.98.23-.07-.03-.12-.08-.13-.16.08-.31.04-.63.05-.94.1-.25-.24-.6.19-.77.07.02.12.06.13.14a.23.23 0 0 1-.06.19v.26c.23.22.64-.15.81.26-.14.25-.37.12-.57.14-.17.01-.28.04-.28.24-.01.22.06.32.29.26z"/><path fill="#0F69AD" d="M16.63 17.81c-.05-.1-.14-.13-.24-.13l-.04-.13c.13-.16.31-.13.49-.12.44.28 1.07.28 1.32.87.04.13.04.27.03.4a.56.56 0 0 1-.09.17c-.52-.31-1.15-.47-1.47-1.06z"/><path fill="#F0F4F5" d="M15.44 14.62c-.04.32.32.67-.08.97-.15.12-.27.31-.49.12-.18-.15-.18-.33.01-.41.22-.09-.18-.43.19-.4.06-.18.15-.31.37-.28z"/><path fill="#115794" d="M22.77 20.32a.2.2 0 0 1 .03.11c.08.24.4.49-.02.71-.27-.13-.48-.37-.79-.44-.19-.04-.38-.17-.13-.39.3-.14.61-.29.91.01z"/><path fill="#D49A30" d="M23.09 18.49c-.38-.08-.54-.4-.72-.69l.15-.38c.72.26.83.36.79.79-.01.14-.07.24-.22.28z"/><path fill="#135595" d="M20.82 24.33c.02-.15 0-.32.07-.43.1-.16.14-.47.44-.38.26.07.14.33.15.5.02.35.01.69.02 1.04 0 .18-.05.3-.25.26-.05-.04-.07-.09-.05-.15.04-.29.07-.57-.02-.85-.14-.12-.25.04-.36.01z"/><path fill="#FCFCF9" d="m27.24 20.19.01-3.96c.27.84.09 1.71.11 2.57.01.46.17.95-.12 1.39z"/><path fill="#D6B46E" d="M17.41 16.75c.14.02.29-.01.4.11l-.63.01c-.09-.07-.15-.16-.14-.28.09-.96.02-1.92.04-2.88 0-.09.02-.17.08-.24l-.01.01c.08-.05.15-.03.2.05.18.6.13 1.2.04 1.81-.06.46-.09.94.02 1.41z"/><path fill="#4178A4" d="M16.63 23.63c-.33.17.04.48-.13.68-.16.27 0 .59-.1.87l-.02.13c-.04.06-.08.06-.12-.01v-1.76c.37-.32.77-.2 1.17-.08.15.03.25.09.25.27-.07.11-.17.09-.27.07-.26-.1-.55.03-.78-.17z"/><path fill="#184588" d="M14.41 25.32c-.05-.2.02-.36.13-.51.26-.09.35-.35.52-.53.12.05.21.14.26.26-.11.2-.41.2-.47.48.3.18.69-.11.98.16a.42.42 0 0 1-.16.13c-.29.1-.61.03-.9.13-.13.02-.26 0-.36-.12z"/><path fill="#DEAB44" d="M23.31 18.21c-.01-.51-.64-.41-.79-.79l.01-.14c.1-.15.03-.33.06-.49.03-.17.1-.22.25-.1.08.37.35.55.65.72.04.06.06.12.07.19 0 .2.05.42-.15.57-.03 0-.06.02-.1.04z"/><path fill="#0E528D" d="M18.08 23.49c.39.05.21.35.24.55.03.25.02.51.03.77.04.05.09.08.15.11.25.08.65-.07.61.43-.31.18-.62.22-.94.02-.23-.51-.02-1.05-.13-1.57-.03-.11-.06-.22.04-.31z"/><path fill="#175286" d="m17.28 20.15.02-.11c.88-.11 1.76-.02 2.65-.05.23.01.47-.03.7.04l.04.03c-.14.19-.35.08-.52.15-.97.14-1.93.25-2.89-.06z"/><path fill="#FEFEFE" d="m17.17 13.47.01 3.4-.04.02c-.36-.1-.19-.33-.13-.53V13.46l.16.01z"/><path fill="#FCFDFE" d="M20.16 20.31c.06.14-.05.14-.13.13-.96-.08-1.93.17-2.88-.13 1.01-.09 2.01-.1 3.01 0z"/><path fill="#FBFBFB" d="M12.83 23.48c.09-.41.43-.2.65-.25.26.1.68-.24.77.29-.28.12-.58.15-.88.2-.19-.05-.4-.06-.54-.24z"/><path fill="#F1F3F4" d="M9.94 20.06a6.2 6.2 0 0 0-.25.13c-.24.13-.33 0-.36-.22.02-.12.08-.2.21-.2.26-.09.4-.31.55-.51.28.11.5.23.05.44-.14.07-.19.21-.2.36z"/><path fill="#CDE0E6" d="M20.16 20.31h-3.01l.02-.16a.2.2 0 0 0 .11 0l2.89.06-.01.1z"/><path fill="#C28411" d="M21.54 26.65c.47.53.35 1.12.19 1.72-.22.05-.17-.15-.23-.24-.05-.32-.01-.65-.03-.97v-.1l.07-.41z"/><path fill="#0F4B8A" d="M14.41 23.6c.42-.18.86-.06 1.29-.07.15-.01.13.13.12.23-.14.07-.24.25-.43.12-.3-.21-.75.15-.98-.28z"/><path fill="#BC800F" d="M20.57 27.56c-.07-.52-.6-.11-.79-.4l.12-.14c.35-.16.71-.17 1.06.01.1.36-.21.4-.39.53z"/><path fill="#ECDFBE" d="M18.73 26.91c-.27.51-.04 1.06-.14 1.58l-.38.14c-.08-.07-.09-.17-.06-.27a1 1 0 0 0 .14-.65c.04-.35-.11-.76.28-1.02.2-.08.38-.05.55.08-.09.17-.25.13-.39.14z"/><path fill="#F0F4F5" d="m14.4 16.5-.26-.02-.01-.06c-.01-.24-.52-.17-.32-.53.07-.13.18-.17.33-.11.3.11.27.36.27.6l-.01.12z"/><path fill="#C38312" d="M21.08 28.24a.36.36 0 0 0-.02.1c-.38.25-.76.22-1.15.02.01-.21.03-.42.26-.52.09.01.14.06.16.15.18.31.56-.02.75.25z"/><path fill="#E3ECF1" d="m18.33 19.26-.06.01-.06-.02c-.16-.14-.1-.31-.07-.48a2.7 2.7 0 0 0-.19-1.09.7.7 0 0 0-.23-.11c-.15-.04-.31-.07-.34-.27l.83-.02c.12-.04.16.02.14.13l-.02 1.85z"/><path fill="#F3F8F9" d="M13.88 24.54c-.1.32.55.97-.39.92a.23.23 0 0 1-.01-.18l.07-.18c.12-.4-.13-.87.23-1.22.27.03.25.02.16.23-.06.13-.05.29-.06.43z"/><path fill="#F8FCFB" d="m17.42 23.46-1.17.08-.02-.32h.13c.36 0 .73-.04 1.08.01.27.05-.02.15-.02.23z"/><path fill="#F7F9FB" d="M19.5 25.33h-.11c-.1-.05-.14-.15-.2-.24a.29.29 0 0 1-.02-.16c.01-.05.04-.1.08-.13.19-.41-.13-.94.29-1.31.23.62.28 1.24-.04 1.84z"/><path fill="#F6F7F5" d="M23.84 15.83v.13c-.07.53.14 1.08-.13 1.58l-.07-.07c-.19-.39.01-.87-.25-1.25-.02-.11-.01-.2.1-.26.08-.12.16-.27.35-.13z"/><path fill="#003E7B" d="M23.57 25.2c-.24.26-.25-.11-.38-.15l-.16-.09c-.26-.09-.57.08-.8-.17-.02-.07 0-.13.06-.18.29-.15.59-.17.9-.11.23.06.21.33.38.44.07.09.09.18 0 .26z"/><path fill="#00256F" d="m15.43 23.87.39-.12c-.09.31-.3.54-.5.79-.16-.01-.25-.1-.26-.26l.27-.4c.02-.05.06-.05.1-.01z"/><path fill="#C88E29" d="M19.11 26.78h-.52c-.16-.09-.26.08-.4.1l-.19.04c-.18-.02-.37-.02-.38-.27.47-.47.98-.26 1.5-.11l-.01.24z"/><path fill="#F5FBFE" d="M27.24 14.64v-.13a3.31 3.31 0 0 1 2.36 0c-.68.29-1.4.06-2.1.14l-.26-.01z"/><path fill="#C78C23" d="m12.7 14.4-.39-.03a.18.18 0 0 1 0-.2c.25-.28.58-.22.9-.22.17.04.37.02.41.27-.28.21-.62.1-.92.18z"/><path fill="#FCFDFB" d="M23.57 25.2v-.25c.27-.45-.03-1.02.28-1.46.24.61.28 1.23 0 1.84l-.28-.13z"/><path fill="#1A588D" d="M25.28 23.63h.26c.23.32.13.67.08 1.02-.15.19-.29.29-.45.01-.08-.36-.09-.71.11-1.03z"/><path fill="#22548A" d="M22.24 24.47c-.07-.37.23-.61.3-.94.12-.17.24-.15.37-.01l.01.45c-.16.08-.23.25-.36.38-.08.08-.18.15-.32.12z"/><path fill="#6B8DB5" d="m19.5 25.33.04-1.84c.04 0 .09 0 .12.02.15.17.15.39.15.6 0 .34-.01.67.02 1.01 0 .07-.02.13-.06.19l-.14.14-.13-.12z"/><path fill="#BB7602" d="m26.19 20.19.01-.79c.32.09.49.42.81.51.04.09.05.18-.02.27l-.8.01z"/><path fill="#F0F4F5" d="m18.34 17.41-.14-.13.13-.26c.23-.11.43-.05.62.12-.16.25-.38.27-.61.27zM15.31 17.03v-.06c.03-.19-.27-.4.02-.57.13-.07.26.01.32.14.16.34-.17.36-.34.49z"/><path fill="#CFE0E9" d="M23.84 25.33v-1.84l.13.14c.13.14.16.31.17.49.01.34-.01.68.03 1.01 0 .07-.02.13-.06.19l-.27.01z"/><path fill="#F0F4F5" d="M17.02 16.36c.02.18-.06.38.13.53-.2.21-.45.13-.74.08l.61-.61z"/><path fill="#BBD1DE" d="m25.52 24.68.02-1.05.12-.14a5 5 0 0 1 0 1.85l-.15-.01a.54.54 0 0 1-.11-.27c.01-.15.07-.26.12-.38z"/><path fill="#F5E9D2" d="M19.12 26.53h-1.11c-.18 0-.37-.01-.33.26-.32-.09-.23-.27-.1-.46a4.75 4.75 0 0 1 1.55.06l-.01.14z"/><path fill="#DDEDF3" d="M19.26 25.06c.11.06.13.16.13.27l-.14.14c-.37.07-.73.25-1.11.12a.8.8 0 0 1-.19-.13v-.13a.2.2 0 0 1 .12-.08c.05 0 .1.02.14.05.31 0 .63.16.91-.1 0-.08.05-.12.14-.14z"/><path fill="#E7EEF3" d="M22.53 24.29c.07-.18.08-.44.39-.31h-.01c.11.14.14.29.09.45-.08.17-.22.21-.38.16-.16-.05-.18-.17-.09-.3z"/><path fill="#194D85" d="M22.77 20.32c-.3-.12-.61.04-.91 0 .3-.19.61-.81.91 0z"/><path fill="#005DA7" d="m17.38 17.3.43.11c-.1.38-.36.27-.61.21-.27-.23-.62-.08-.91-.21.34-.19.73-.02 1.09-.11z"/><path fill="#D9E1EB" d="m18.08 25.33-.14.01c.07-.61-.17-1.25.14-1.85l-.01.26c.11.52.09 1.05.01 1.58z"/><path fill="#FEFEFE" d="M25.67 25.33v-1.85c.2.13.12.35.14.53-.07.44.14.91-.14 1.32z"/><path fill="#174F8D" d="M22.77 21.14c.19-.23.03-.48.02-.71.23.09.25.33.35.51.06.1.13.24-.01.34-.16.1-.26-.01-.36-.14z"/><path fill="#D7E8F0" d="M16.26 25.29c.04.01.08.02.12.01.36-.02.73.18 1.06-.1.17.01.24.11.24.27-.48.1-.96.1-1.44 0l.02-.18z"/><path fill="#ADCDD9" d="M21.24 25.19c-.01.04-.02.09-.01.13-.34-.24.1-.82-.42-.99.14-.06.2-.32.42-.18.08.35.07.7.01 1.04z"/><path fill="#033A77" d="M15.71 19.02c.04-.4-.11-.82.1-1.2.17.41.18.82-.1 1.2z"/><path fill="#003E81" d="M13.35 23.62c.3-.05.59-.16.9-.1.01.43-.33.17-.49.26-.07.03-.09.11-.15.15a.33.33 0 0 1-.14 0 .3.3 0 0 1-.14-.17.14.14 0 0 1 .02-.14z"/><path fill="#003A7C" d="M12.17 20.19c.46-.28.95-.07 1.43-.09-.41.19-.87-.04-1.28.16l-.13.04.01.01a.27.27 0 0 1-.03-.12z"/><path fill="#FDFEFE" d="M15.58 25.6c-.39-.06-.81.13-1.18-.13.47-.15.96-.13 1.44-.13.12.24.12.24-.26.26z"/><path fill="#0960A5" d="M13.73 14.93c.01.03.02.06.01.1-.07.1-.12.21-.24.27-.11.05-.22.12-.35.12-.23-.04-.46-.07-.48-.38.17-.18.42-.14.62-.22.06-.02.13-.02.19-.02.11 0 .19.04.25.13z"/><path fill="#B97708" d="M13.61 14.21c-.09-.13-.23-.11-.36-.11-.01-.27.21-.23.37-.26.28.04.56.06.78.28-.11.22-.38.04-.51.21-.14.06-.18-.1-.28-.12z"/><path fill="#094E8A" d="M10.6 20.69c.42-.22-.01-.42-.01-.64.21.13.46.21.63.47-.2.09-.37.24-.62.17z"/><path fill="#00327F" d="M19.66 24.15v-.63c.26-.05.34.12.39.33a.3.3 0 0 1 .02.16c-.06.1-.16.15-.26.19a.23.23 0 0 1-.15-.05z"/><path fill="#FAFCFC" d="M24.89 24.39c.14-.29.04-.64.26-.91.13.37.05.74.05 1.12-.27.17-.33.05-.31-.21z"/><path fill="#024383" d="m23.99 24.15-.02-.51c.18-.01.41-.1.4.23.07.08.08.17.04.27a.34.34 0 0 1-.16.1.31.31 0 0 1-.26-.09z"/><path fill="#85A8C3" d="m13.59 23.89.17-.11.01.11c-.14.47.15.99-.17 1.43-.18-.19-.15-.43-.16-.66 0-.27-.04-.54.15-.77z"/><path fill="#5F89B3" d="M19.75 24.15c.06-.14.16-.14.27-.09.09.07.11.17.1.28-.07.33-.09.67-.23.99-.04 0-.08 0-.11-.02v-.12a2.15 2.15 0 0 1-.03-1.04z"/><path fill="#FAFDFD" d="m23.18 24.95.01.1-1.06.15-.12-.16c.1-.1.21-.17.36-.17.27.03.55-.07.81.08z"/><path fill="#D6E7EF" d="M15.84 25.33c-.46.28-.96.07-1.44.13l.01-.15h.39c.3-.13.63.05.93-.11l.11-.02v.15z"/><path fill="#F6FBFE" d="M19.12 26.39h-1.57c.09-.36.31-.25.52-.14h1.05v.14z"/><path fill="#F3F4F5" d="M22.92 29.03c-.44.09-.61-.23-.79-.53.43-.07.54.33.79.53z"/><path fill="#FAFCFC" d="M19.89 25.33c.09-.34-.12-.72.14-1.04.11.04.16.15.21.25.02.08.01.16-.05.23-.13.17-.1.43-.3.56z"/><path fill="#1A4C88" d="M20.46 24.62c.12-.02.27-.23.36 0 .06.16-.06.37-.19.44-.16.08-.32-.03-.34-.25.01-.1.07-.16.17-.19z"/><path fill="#BDD7E2" d="M22.53 24.29c.08.34.23.33.42.08.09-.04.16-.02.23.04l.01.11c-.27.25-.6.15-.92.14-.04-.03-.05-.06-.04-.1.01-.03.03-.05.04-.05l-.02-.04.28-.18z"/><path fill="#FCFEFD" d="M16.24 25.46h1.44c-.46.28-.96.06-1.44.13v-.13z"/><path fill="#E8EEF1" d="M17.15 19.8c.01.04.01.08-.01.12h-1.01c-.16 0-.33-.02-.18-.26.19.26.45.09.68.11.17-.07.35-.09.52.03z"/><path fill="#0B5492" d="M15.2 19.66c-.15-.1-.18-.22-.06-.36.13-.13.29-.13.45-.04l-.39.4z"/><path fill="#F6F7F5" d="m23.41 18.16.06-.61c.08-.08.16-.08.23 0-.06.22.17.58-.29.61z"/><path fill="#FEFEFE" d="m12.84 14.65-.14-.14c.3 0 .6-.01.9.01.16.01.33.04.15.26-.31-.05-.64.12-.91-.13z"/><path fill="#BE8724" d="m15.44 14.62-.37.28-.3-.25c-.03-.03-.04-.05-.03-.08l.03-.04.65-.01c.02.03.02.06.02.1z"/><path fill="#FCFEFE" d="M16.34 17.82c.02.36.19.74-.1 1.07.04-.36-.12-.74.1-1.07z"/><path fill="#00448B" d="m13.22 15.3.27-.13c.07.09.07.17 0 .26a.2.2 0 0 0-.03.11c-.21.12-.42.29-.65.03.09-.17.3-.15.41-.27z"/><path fill="#1B3E83" d="m24.37 24.14.01-.27c.27.05.4.23.4.5.05.08.04.15-.03.21l-.11-.03a.43.43 0 0 1-.31-.26c-.03-.07-.01-.11.04-.15z"/><path fill="#DDECF2" d="m25.15 24.65-.01-1.17.14.14-.01 1.04-.07.05-.05-.06z"/><path fill="#12558C" d="m22.13 19.15.27.14c-.15.25-.4.36-.66.46-.05-.02-.06-.04-.05-.07a.05.05 0 0 1 .05-.03c.12-.17.41-.21.39-.5z"/><path fill="#F0F4F4" d="m15.43 23.87-.1.01c-.3-.1-.74.24-.91-.29.26.34.71.03 1.01.28z"/><path fill="#A7C7D8" d="M12.84 14.65c.3.03.63-.13.9.13l-.01.15-.24-.03c-.21-.12-.5.13-.67-.14l.02-.11z"/><path fill="#F7FDFE" d="M19.91 26.92c.32-.25.69-.1 1.04-.11.01 0 .03.03.03.05l-.02.06c-.36.1-.71.1-1.05 0z"/><path fill="#FBFEFC" d="M21.45 28.24h-.11c.06-.39-.13-.81.12-1.18l.02-.01c.1.33.02.67.05 1 .02.07-.01.14-.08.19z"/><path fill="#F7FAFD" d="M26.2 20.35h.9v.06h-.9v-.06z"/><path fill="#E3ECF1" d="m17.41 23.74.26-.01c-.31.32-.7.09-1.04.16-.02-.04-.02-.08 0-.13.26-.12.52-.1.78-.02z"/><path fill="#EFE3C1" d="M19.91 26.92h1.05v.13l-1.06-.01.01-.12z"/><path fill="#16327D" d="m24.74 24.58.03-.21.12.03c.04.13.1.25.26.26l-.01.04c.08.08.09.16.04.25-.06.04-.11.04-.16-.01-.14-.09-.3-.16-.28-.36z"/><path fill="#E3ECF1" d="M17.44 24.41c-.2-.31-.62.07-.81-.26.23 0 .47-.01.7.01.16.01.22.1.11.25z"/><path fill="#00397C" d="M21.74 19.66v.1c-.16.09-.32.19-.52.17.06-.3.3-.26.52-.27z"/><path fill="#004E95" d="M16.28 17.42c.29.05.61-.11.87.13-.08.08-.17.08-.26.01h-.54c-.06-.03-.12-.06-.07-.14z"/><path fill="#00286E" d="M22.27 24.51v.14l-.01.14c.08.05.08.09 0 .14-.06.1-.14.13-.25.11-.01-.22-.01-.44.26-.53z"/><path fill="#203F80" d="m20.16 24.55-.14-.26-.01-.23.04-.22c.15.15.23.34.28.55-.02.09-.08.14-.17.16z"/><path fill="#F4F5F2" d="M14.77 14.52c.02.04.02.08 0 .12-.28-.02-.56-.07-.77-.28.28-.05.51.13.77.16z"/><path fill="#F0F4F5" d="M13.5 15.44v-.26l.24-.15c-.08.13.37.57-.24.41z"/><path fill="#FBFEFE" d="M19.25 24.81v.13c-.3.13-.6.09-.9 0v-.13h.9z"/><path fill="#001C66" d="m23.18 24.41-.23-.04a5.15 5.15 0 0 0-.04-.39c.26.03.31.2.27.43z"/><path fill="#1F4687" d="m20.16 24.55.17-.16.12.23-.17.19a.3.3 0 0 0-.1-.04l-.02-.22z"/><path fill="#F7FBFB" d="m22.91 23.52-.37.01c0-.13.01-.28.18-.28.17-.01.19.13.19.27z"/><path fill="#B57400" d="M26.98 20.17v-.25c-.1-.11-.11-.23-.05-.36.05-.06.11-.07.17-.02v.65l-.06.01-.06-.03z"/><path fill="#B06A00" d="M20.31 27.73c.07-.19.16.03.24-.01l-.11.13c-.14.07-.15 0-.13-.12z"/><path fill="#B37000" d="m20.31 27.73.14.11-.11.14-.16-.15.13-.1z"/><path fill="#DEAE49" d="m29.35 13.48.24.02v.84c-.51.21-1.05.04-1.57.1-.08 0-.13-.05-.15-.13.16-.3.47-.23.73-.28.29-.03.76.27.69-.39-.01-.06.01-.11.06-.16z"/><path fill="#F3EBD1" d="m27.9 14.36 1.68-.01.02.16h-2.36a.29.29 0 0 1 0-.13c.21-.2.44-.18.66-.02z"/><path fill="#FDFDF8" d="M31.18 15.7c.02-.18-.06-.38.12-.52.06.57.06 1.14 0 1.71-.24-.38-.07-.8-.12-1.19z"/><path fill="#F1F5F5" d="m15.45 13.86-.39-.14c-.37-.01-.74.04-1.08-.14-.3-.15-.65-.03-.96-.17-.12-.2-.38-.11-.54-.21.07.14.26-.01.36.1.05.17-.07.22-.19.27-.26.06-.52.12-.76.25-.15.07-.3.15-.41.29-.2.22-.33.48-.49.73-.11.14-.13.31-.19.47-.03.08-.09.13-.12.21-.01.04-.05.08-.04.12.05-.03.04-.1.1-.12.14.01.19.11.23.22.04.34.35.52.47.81.01.06 0 .12-.03.17-.13.06-.17.17-.18.3-.06-.01-.13-.01-.19-.04-.32-.12-.39-.77-.84-.51-.25.14-.36.54-.53.82-.19.11-.45.19-.26.5v.01c-.21.23-.04.58-.26.8-.12.14-.26.29-.15.5.02.26-.21.4-.29.62-.16.22-.27.5-.62.42v-.25c-.04-.18.14-.39-.04-.56.1-.3.34-.54.43-.84.09-.19.11-.41.18-.61l.13-.38c.08-1.27.03-2.53.03-3.79l-.02-.09-.08-.16c-.25-.17-.48-.25-.69.06l-.01.2c-.05 1.27.09 2.55-.07 3.81a.24.24 0 0 1-.17.14c-.3-.18-.24-.48-.25-.75-.02-1.04.01-2.08-.01-3.11-.57.5-.86 1.13-.72 1.86.1.55.17 1.07.08 1.61-.06.34-.06.66.37.77.3.08.28.35.3.59-.1.61-.65.63-1.06.84-.31.08-.63.06-.94.05a1.95 1.95 0 0 1-.87-.35c-.13-.13-.24-.27-.11-.46-.22-.54-.13-.92.36-1.33.7-.59.61-1.49.52-2.31a9.6 9.6 0 0 0-.35-1.59c-.11-.37.13-.68.09-1.06-.04-.43-.23-.59-.53-.7-.9-.31-1.18-.9-.69-1.73a.37.37 0 0 0 .05-.25c-.09-.29-.14-.73.02-.84.48-.31 1.05-.51 1.59-.72.25-.1.3.29.53.28.35-.03.65-.19.85-.48.3-.41.69-.43 1.1-.26 1 .43 2.05.17 3.06.29.68.08 1.38.15 2.07.27.4.07.79.04 1.1-.26.18-.18.23-.34-.1-.39-.02-.07-.01-.12.04-.17.19-.13.42-.11.63-.18.18-.05.36-.07.53-.13l.76-.25c.14-.05.28-.09.41-.15.39-.19.8-.33 1.19-.52.12-.06.24-.15.36-.22.07-.04.15-.07.22-.09.15-.05.27-.15.42-.21.09-.04.19-.07.28-.13l.27-.17.43-.26c.17-.1.33-.15.51-.04.12.31-.16.44-.3.63-.5.48-.98.98-1.46 1.47-.67.69-1.38 1.33-2.01 2.06l-.2.28c-.13.18-.25.38-.41.54l-.18.19c-.39.38-.75.8-1.17 1.15-.37.26-.71.54-.92.96l-.05.15c0 .14.11.15.21.18.25.08.52.04.78.1l.17.06c.2.19.54.1.71.34-.09.2-.06.41-.01.63z"/><path fill="#105D9D" d="m4.56 18.75.16.33c-.16.35-.55.29-.81.46a2.5 2.5 0 0 1-.79-.94v-.26c.1-.33.24-.63.6-.75.06-.01.12-.02.19-.01.06.02.12.05.16.09.03.09.04.18-.02.27.12.31.08.71.51.81z"/><path fill="#CD9028" d="M8.96 4.2c.43-.11.66.26.99.41-.24.46-.62.82-.93 1.22-.52-.31-.53-.85-.63-1.35.09-.3.19-.59.57-.28z"/><path fill="#DBA53A" d="M9.02 5.83c.09-.57.51-.89.93-1.22V4.6c.17.22.45.18.67.26l.13.13c-.38.31-.68.7-1.01 1.06-.12.15-.21.35-.45.28-.08-.18-.3-.27-.27-.5z"/><path fill="#ECC258" d="M12.47 5.26c.69.06 1.39-.09 2.06.12l-.07.08c-.4.2-.83.08-1.24.11-.16 0-.32 0-.48.03a.54.54 0 0 1-.18 0c-.8-.26-1.16.35-1.61.8-.27.27-.44.66-.89.6l-.24-.15c.3-.71.97-1.07 1.47-1.6a.64.64 0 0 1 .18-.06c.13.02.26.02.39.02.21.01.41-.04.61.05z"/><path fill="#FCE581" d="M13.09 7.65c-.53-.02-1.08.12-1.59-.12.15-.25.13-.6.44-.76.8-.36 1.17-.07 1.15.88z"/><path fill="#F1CA60" d="M12.57 5.54h.13c.06-.06.11-.06.17 0a.3.3 0 0 1-.01.28c-.81-.06-1.32.42-1.77 1-.19.13-.17.49-.51.45a.8.8 0 0 1-.52-.27l.81-.67c.2-.12.38-.28.52-.46.31-.41.71-.5 1.18-.33z"/><path fill="#FBDF78" d="m13.09 7.65-.05-.12c-.17-.58-.36-1.11-1.13-.67l-.06-.07c-.03-.14.02-.24.11-.34l.15-.11c.47-.26.77.02 1.07.33.27.22.27.75.78.71.13.02.25.05.33.17a.49.49 0 0 1-.04.11c-.39-.02-.78-.01-1.16-.01z"/><path fill="#2E6598" d="m2.98 17.83-.1-.06c-.16-.17-.05-.39-.09-.59-.13-1.12-.04-2.24-.05-3.37 0-.13.04-.26.14-.35h1.01c.06.06.06.12 0 .17-.18.15-.47.06-.63.27-.18 1.12-.03 2.25-.08 3.38-.01.21-.02.41-.2.55z"/><path fill="#E0AC3F" d="M9.29 6.33c.3-.34.62-.65.88-1.01.16-.23.33-.33.58-.32l.37.01c-.5.56-1.01 1.13-1.6 1.6-.11-.07-.23-.13-.23-.28z"/><path fill="#E2B246" d="M9.52 6.61c.41-.66.91-1.22 1.6-1.6l.14.02c.09.05.2.1.13.24-.6.36-1.03.9-1.51 1.38-.06.06-.1.13-.2.08l-.16-.12z"/><path fill="#FAFBFC" d="m4.06 17.94-.04-.22a1.2 1.2 0 0 1-.16-.69v-2.82c0-.27.04-.52.18-.75.16.13.13.31.13.48v3.58c.01.15.02.3-.11.42z"/><path fill="#D2E4ED" d="m4.04 13.46-.02 4.26-.1-.04a.67.67 0 0 1-.17-.32c-.03-1.18-.06-2.36.02-3.54a.72.72 0 0 1 .12-.21.19.19 0 0 0 .01-.13c.04-.02.09-.02.14-.02z"/><path fill="#E7B94E" d="m9.67 6.73 1.1-1.17c.17-.18.35-.32.61-.29-.45.6-1.05 1.05-1.56 1.58l-.15-.12z"/><path fill="#EAF8FC" d="m2.89 13.46-.04 3.82c-.04.06-.08.06-.11 0v-.13c-.1-1.19-.1-2.38 0-3.56l.15-.13z"/><path fill="#F5F7F8" d="M2.73 13.59v3.56c-.28-.46-.06-.97-.13-1.45.07-.7-.14-1.42.13-2.11z"/><path fill="#F7D46B" d="M10.58 7.27c.21-.12.13-.47.42-.55.28-.1.38-.51.75-.45.05.04.08.09.08.15-.17.36-.51.61-.61 1.01a.34.34 0 0 1-.26-.04c-.14.01-.28 0-.38-.12z"/><path fill="#FBDF78" d="m10.97 7.4.29-.02c.12-.31.16-.71.66-.53-.2.18-.06.58-.41.67-.2 0-.39.03-.54-.12z"/><path fill="#FCFEFE" d="m.92 18.86-.05-.52.04-.26h.24c-.06.26.2.63-.23.78z"/><path fill="#BA7E17" d="M8.96 4.2c-.32-.17-.42.1-.57.28l-.04-.24c-.12-.22-.12-.41.14-.52.15.17.44.2.47.48z"/><path fill="#B78E4A" d="m8.49 3.72-.14.52-.09-.04v.01c-.14-.21-.11-.43-.02-.65.13-.02.23.01.25.16z"/><path fill="#F1F5F5" d="M18.07 26.26c-.18.02-.39-.06-.52.14.01.14-.04.3.13.39l.51.01c.25.51.2 1.03.03 1.55l-.01.28c-.29.22.03.44-.01.66.09.26.42.45.26.79-.3.06-.57.18-.79.4-.39.17-.79.22-1.18 0-.97-.13-1.92-.5-2.92-.32-.05.01-.17-.03-.17-.05-.01-.44-.03-.89.12-1.31.13-.35.42-.41.75-.29.09.09.19.06.3.05.06-.01.11.03.16.01-.04-.05-.09-.08-.1-.15a.3.3 0 0 1 .09-.13c.17-.07.31-.2.45-.33.24-.05.31.18.46.27l.13.1.14.1c.2.08.41.04.61.09l.05.02v-.06a.38.38 0 0 1 0-.15c.02-.05.05-.1.09-.14.2-.13.42-.22.54-.45.14-.4-.01-.72-.28-1-.04-.05-.05-.1-.06-.17.02-.1.12-.13.18-.19.18-.24.38-.46.69-.53.24-.05.22-.22.23-.4h.13c.24.17.54-.03.79.13-.03.28-.23.27-.43.26-.3.01-.39.16-.37.42z"/><path fill="#F0F4F5" d="M2.73 22.3c-.35-.14-.8-.15-.11-.59.99-.64.94-.7 1.9-.07.24.16.47.41.8.39.29-.01.52.08.64.35.13.31-.08.48-.29.65-.04.03-.04.12-.06.18-.11 0-.26.04-.31-.02-.43-.46-.99-.34-1.52-.38a4.89 4.89 0 0 1-.39-.4c-.25.13-.4-.28-.66-.11zM8.26 21.9c.25.1.53.07.65.47.09.3.54.37.88.44.22.05.47.07.42.4-.21.23-.53.15-.79.26-.43-.01-.55.2-.54.63.01.27.22.66-.23.83a.43.43 0 0 1-.06-.07l-.02-.09c.01-.21.04-.41.06-.62-.03-.14.09-.34-.15-.41-.25-.49-.91-.62-1.04-1.21-.16-.32.15-.37.28-.52l.14-.09c.14-.03.26-.14.4-.02z"/><path fill="#F3F4F5" d="M16.5 30.48c.39 0 .79-.13 1.18 0 .03.17.41.46 0 .48-.7.03-1.39.22-2.09.05l.13-.26c.22-.21.62.14.78-.27z"/><path fill="#BE7C0B" d="M15.25 27.99c-.04.26-.18.4-.46.37a.29.29 0 0 1-.08-.14.7.7 0 0 0-.16-.52c-.35-.16-.64-.36-.69-.78.09-.14.19-.27.37-.29.1-.05.17-.01.22.08.04.26.17.44.41.54.19.11.38.23.43.47.02.09.02.19-.04.27z"/><path fill="#EAF0F2" d="M10.34 23.61c.09.15.18.01.27.01.34.33.39.68.06 1.06-.4.05-.67-.29-1.03-.35-.18-.16-.25-.34-.1-.56l.01-.15c.26-.22.52-.14.79-.01z"/><path fill="#1F4E88" d="M9.68 24.27c.38-.04.69.09.91.41.11.12.11.24-.01.35-.34.38-.73.41-1.22.22.26-.32.78-.04.8-.37.02-.34-.56-.17-.71-.48.05-.08.13-.12.23-.13z"/><path fill="#F1F5F5" d="M15.71 30.74c.07.14.1.27-.13.26h-.78c-.12-.01-.35.08-.28-.2.04-.15.21-.36.3-.25.27.35.64-.05.89.19z"/><path fill="#FEFEFE" d="m10.58 25.03.01-.35c.24-.35.09-.71.01-1.06l.25-.13.08.08a3.2 3.2 0 0 1 0 1.68l-.08.08a.5.5 0 0 1-.27-.3z"/><path fill="#C28006" d="M11.39 26.91c-.14.48-.05.97-.02 1.46-.02.04-.05.07-.1.07-.14.01-.12-.11-.16-.19-.22-.4-.1-.83-.1-1.25a.35.35 0 0 1 .12-.19l.09-.05c.13-.03.2.01.17.15z"/><path fill="#F4F8F9" d="M10.34 23.61c-.26.15-.52-.07-.78.01l-.13-.13c.17-.36.5-.24.79-.26.06.11.27.19.12.38z"/><path fill="#B97601" d="M13.36 26.54a.16.16 0 0 1 .1-.01c.07.39.2.78 0 1.17-.08.04-.15.01-.19-.06-.12-.38-.18-.75.09-1.1z"/><path fill="#C08108" d="M12.04 26.51c.29.17.14.44.14.67-.19.2.05.51-.16.71-.15-.47-.19-.93.02-1.38z"/><path fill="#FAFEFE" d="M7.33 25.05c-.25-.12-.27-.12-.27-.32v-1.24c.07-.05.13-.04.18.02.22.43.07.89.14 1.34 0 .07-.01.13-.05.2z"/><path fill="#F1F5F5" d="M14.55 27.7c.5-.02.32.27.24.52-.2.17-.3.04-.39-.13.02-.14-.19-.37.15-.39z"/><path fill="#F9FAF6" d="M11.14 26.81c.01.04.01.08-.01.11-.18.41.03.87-.12 1.28-.34-.18-.09-.48-.14-.72-.04-.23-.01-.47-.01-.7l.13-.13.15.16z"/><path fill="#002A6D" d="m9.68 24.27-.24.13c-.21-.25-.61-.53.1-.64-.02.19.04.36.14.51z"/><path fill="#BC7701" d="M12.19 27.67c.2.24.23.79.77.44.08.09.07.17 0 .26-.4.09-.73.03-.91-.4.09-.08.02-.24.14-.3z"/><path fill="#B86E00" d="M14.4 28.09c.13.05.22.2.39.13v.15l-.12.04c-.05.03-.1.03-.14 0-.09-.01-.18-.01-.26-.05-.12-.05-.35-.07-.3-.24.08-.27.28 0 .43-.03z"/><path fill="#FDFEFC" d="M18.33 30.88c.26.04.54-.09.78.11-.23.22-.51.16-.78.14v-.25z"/><path fill="#C98A1C" d="M12.96 28.37v-.26l.11-.15.02-.08a.36.36 0 0 1 .13-.21c.06-.02.1-.01.14.04h.11c.09.42-.22.53-.51.66z"/><path fill="#15437E" d="M8.45 25.2c-.29.25-.58.24-.87.01.02-.1.07-.16.16-.19a.58.58 0 0 1 .43-.01c.12.02.23.07.28.19z"/><path fill="#F3F4F5" d="M18.46 30.08c0-.29-.34-.47-.26-.79.29.2.56.4.26.79z"/><path fill="#DCB976" d="M11.01 28.2c.01-.43-.14-.88.12-1.28l-.01 1.33-.11-.05z"/><path fill="#CB9E43" d="m11.27 28.44.1-.07c.17.11.24.28.21.47 0 .02-.13.05-.16.03-.16-.1-.21-.25-.15-.43z"/><path fill="#F9FDFE" d="M21.08 28.49c-.09.17-.24.14-.39.14-.26-.04-.55.11-.78-.13v-.01c.39-.09.78-.08 1.17 0z"/><path fill="#F3F4F5" d="M3.39 22.43c.25.01.38.14.39.4-.29.02-.42-.11-.39-.4z"/><path fill="#EEF5F8" d="M11.9 25.47c-.35-.07-.73.13-1.04-.14l.02-.01a.52.52 0 0 1 .19-.11c.32-.02.66-.17.87.23l-.04.03z"/><path fill="#012970" d="m8.45 25.2-.22-.14c-.04-.04-.06-.06-.03-.09l.06-.03.14-.13c.09-.09.17-.08.25 0a.13.13 0 0 0 0 .12l-.2.27z"/><path fill="#F8FCFE" d="M14.52 28.41h.14l.36.21c-.33 0-.56.09-.76-.12l.26-.09z"/><path fill="#CCA655" d="m11.39 26.91-.16-.16c.01-.21.08-.36.36-.38-.01.24-.06.41-.2.54z"/><path fill="#0E4D86" d="m7.74 25.03-.15.17-.25-.16-.01-.11.02-.07a.35.35 0 0 1 .11-.1c.05-.01.1 0 .12.05l.14.13c.04.01.06.03.05.05l-.03.04z"/><path fill="#B87600" d="M12.19 27.67c-.02.11-.03.23-.14.3-.04-.02-.05-.05-.03-.08.07-.23-.07-.51.16-.71l.01.49z"/><path fill="#F1F5F5" d="m14.01 31.25-.68-.23c.24.04.56-.17.68.23z"/><path fill="#FEFEFE" d="M9.66 25.54c.14-.11.28-.09.43-.02-.14.11-.27.1-.43.02z"/><path fill="#106FB1" d="M6.49 19.37c.25-.33.95-.12.94-.77-.04-.19.19-.33.1-.53.05-.16.17-.28.29-.4l.04.02.1-.21c.03-.1.07-.21.14-.29.25-.27.51-.57.73.02.05.1.06.21.1.32.02.05.01.11-.02.15l-.14.27c-.1.21-.17.42-.15.66-.09.32-.28.57-.52.79 0 .17-.13.22-.26.26l-.37.28c-.26-.33-.74-.24-.98-.57z"/><path fill="#1064A3" d="M3.91 19.54a.9.9 0 0 1 .81-.46l.76.32.13.1c.1.04.21.08.3.14.28.32.77.12 1.06.43l-.55.35-.27.03h-.56c-.15-.03-.32-.01-.44-.15-.43-.23-1-.23-1.24-.76z"/><path fill="#2186C6" d="M8.11 20.17c.25-.1.4-.31.55-.51.29-.15.48.01.65.23.02.47-.43.71-.56 1.11a.44.44 0 0 1-.2.18.37.37 0 0 1-.18-.01c-.18-.09-.34-.21-.51-.33-.04-.27.08-.48.25-.67z"/><path fill="#1271B3" d="M6.97 20.07c-.44-.04-.93.08-1.22-.41.08-.1.2-.05.34-.09-.24 0-.43.07-.61-.05v-.12l1.01-.03c.34.16.89-.06.96.56-.13.14-.29.17-.48.14z"/><path fill="#F0F4F5" d="m7.74 25.03-.02-.09c.17-.39-.13-.79.06-1.22.59.24.4.79.49 1.22l-.02.11-.51-.02z"/><path fill="#6A93B5" d="m7.57 24.81-.09-.04c-.22-.28.01-.64-.12-.89.06.32.02.68.02 1.04l-.06.01c-.26-.47-.1-.96-.1-1.44.07-.09.15-.08.24-.02.25.43.09.9.11 1.34z"/><path fill="#2C5F98" d="M8.65 24.82H8.4c-.12-.37.22-.7.09-1.07.03-.1.03-.22.16-.24.13-.02.17.1.17.2 0 .14-.03.29-.04.43-.18.2 0 .47-.13.68-.01 0 0 0 0 0z"/><path fill="#208ACE" d="M7.86 20.84c.31-.17.4.09.52.29.02.05.02.1.01.15a.62.62 0 0 1-.14.19c-.04.04-.09.06-.14.08l-.08.01c-.14-.02-.27-.06-.34-.2a.78.78 0 0 1 .17-.52z"/><path fill="#1A7AB7" d="m7.69 21.36.43.18c.05.24-.16.34-.26.5l.02.04c-.18.02-.35-.01-.46-.18.04-.2.02-.44.27-.54z"/><path fill="#F5F9FA" d="M6.27 20.33c.08-.03.13.01.15.09-.48.37-.97.08-1.45-.01-.02 0 .1-.09.17-.11l.48.04c.22.07.43.08.65-.01z"/><path fill="#5592B5" d="M7.41 21.9c.18-.01.32.09.46.18-.1.2-.43.16-.42.46-.45-.19-.07-.42-.04-.64z"/><path fill="#F0F4F5" d="m6.8 22.56-.47-.29c.19-.16.37-.14.52-.03.12.09.06.23-.05.32z"/><path fill="#EEF1F0" d="m7.83 19.65.26-.26c.42.16.09.35.02.53l-.28-.27z"/><path fill="#F0F4F5" d="m7.45 23.48-.24.02-.16-.01c.03-.15-.09-.42.12-.44.22-.02.15.3.28.43z"/><path fill="#0B599A" d="M3.78 17.68c-.3.14-.43.45-.66.66-.03-.03-.03-.05-.01-.09-.1-.33-.03-.66-.05-.99.01-1.17-.03-2.35.02-3.52.19-.14.39-.1.59-.03.21.5.09 1.03.1 1.55.03.8.02 1.61.01 2.42z"/><path fill="#FCFDFD" d="M2.73 17.28h.11l.04.49-.05.3h-.1v-.79z"/><path fill="#004282" d="m3.13 17.28-.01.97c-.17-.1-.13-.27-.13-.42l.02-.55c.04-.06.08-.06.12 0z"/><path fill="#F1F3F4" d="M22 4.21c.24.36.33.04.48-.1.22-.22.5-.22.73-.09.21.12.11.4.1.61 0 .12-.07.2-.2.23-.62.13-1.07.41-1.16 1.12-.02.14-.21.27-.33.4-.29.32-.56.61-.32 1.14.18.41.03.82-.5.95-.5.13-.98.45-1.52.11-.18-.13-.09-.29-.04-.44.55-.65 1.06-1.34 1.46-2.1a6.51 6.51 0 0 0 1.13-1.84c.06-.03.11-.03.17.01z"/><path fill="#F4F5F6" d="M17.88 2.84a1.2 1.2 0 0 0-.84.51c-.32.44-.74.11-1.09.11-.55 0-.81.04-.38.66-.42.02-.78.01-.88-.36-.09-.33.08-.65.32-.9.47-.48 1-.82 1.69-.84.35-.01.88-.33.82.46-.02.18.33.09.36.36z"/><path fill="#EEC35B" d="M23.48 15.96v.27c.14.13.21.27.1.46-.48.23-.73.17-.87-.34a7.8 7.8 0 0 0-.68-1.63c-.12-.22-.2-.46.11-.61.81.35 1.06 1.11 1.34 1.85z"/><path fill="#E7B950" d="M22.14 14.1c-.05.14-.16.26-.05.43.35.55.65 1.12.76 1.79.06.39.34.55.73.31.09.12.06.26.04.39-.46.5-.62.03-.83-.26-.28.08-.01.42-.25.52.1-.92-.17-1.7-.82-2.35-.36-.65-.32-.78.28-.92l.14.09z"/><path fill="#C3841C" d="M16.37 5.15h.27c.26.14.48-.11.73-.08.21-.07.42-.21.63 0 .05.22-.09.37-.18.54-.19.39-.46.74-.91.73-.45-.01-.58-.45-.73-.81a.4.4 0 0 1-.01-.19c.02-.11.12-.14.2-.19z"/><path fill="#DDA941" d="M21.99 14.01c-.6.15-.24.59-.28.92l-1.19-.52c.03-.06.09-.11.02-.19-.14-.14-.3-.26-.28-.49a.5.5 0 0 1 .28-.2c.06-.01.11.01.16.05.48-.01.88.22 1.29.43z"/><path fill="#167ABE" d="m18.61 9.24-.26.26c-.13.09-.16.35-.39.25-.16-.07-.1-.26-.14-.4-.16-.59.26-1.07.31-1.62.05-.2.17-.34.36-.42.06-.01.13 0 .19.02.3.27.21.59.09.89-.12.34-.18.67-.16 1.02z"/><path fill="#CF942C" d="M16.66 6.87c-.11.11-.25.13-.39.14-.33.14-.32-.13-.41-.32-.24-.52-.54-.99-1.19-1.04-.09-.05-.16-.1-.13-.22l-.02-.04c.34-.07.67-.17 1.03-.13l.09.02a.5.5 0 0 1 .3.16c.28.45.72.83.72 1.43z"/><path fill="#1275BA" d="M18.2 7.78c.14.1.09.31.05.35-.43.46-.25 1.01-.29 1.57l.39-.2c-.01.27-.02.54-.4.53-.33.04-.28-.27-.37-.43-.15-.29-.2-.62-.35-.9.18-.46.45-.83.97-.92z"/><path fill="#197FC2" d="M18.61 9.24c-.33-.3-.17-.65-.03-.95.15-.32.24-.6.01-.9-.07-.21.07-.28.23-.33.46.08.06.59.37.74.13.09.13.24.18.37l-.09.4-.67.67z"/><path fill="#FCE07B" d="M23.72 14.36c-.02-.9-.02-.9.85-.9l2.42.02c.03.06.02.12-.03.16a.5.5 0 0 1-.17.07c-.15.03-.31.03-.46.03h-.44a.73.73 0 0 0-.25.04c-.49.56-.62.57-1.24.12-.07-.08-.15-.14-.27-.11-.2.15-.09.43-.25.59-.07.04-.12.03-.16-.02z"/><path fill="#1370B2" d="M17.28 8.7c.51.3.31.95.67 1.33l-.05.13c-.18.1-.28.38-.56.28-.55-.45-.26-1.07-.32-1.62 0-.09.14-.16.26-.12z"/><path fill="#E4B34C" d="m20.02 4.3.63-.23c.29-.04.27.23.37.39 0 .06 0 .11-.02.16-.06.09-.15.15-.21.24a.43.43 0 0 1-.11.12.45.45 0 0 1-.3.12.56.56 0 0 0-.63.09c-.19.05-.29-.02-.31-.21a.33.33 0 0 1 .07-.16c.16-.1.34-.2.42-.39a.3.3 0 0 0 .09-.13z"/><path fill="#E6B957" d="m20.97 4.6-.32-.54c.51-.17.93-.66 1.55-.5-.09.27-.38.36-.5.61-.21.18-.37.48-.73.43z"/><path fill="#DEA93F" d="m20.02 4.3.01.18c-.11.22-.35.26-.52.4-.18.18-.1.42-.14.62l-.25.16c-.67-.22-.3-.6-.14-.95.25-.37.69-.28 1.04-.41z"/><path fill="#FAFCFD" d="m17.3 13.49-.14-.02c-.01-.18.07-.27.25-.28.49.28 1.02.09 1.53.12.56.03 1.13.01 1.7.01.02 0 .04.02.04.03l-.02.11c-1.04.31-2.09.14-3.14.13a.49.49 0 0 1-.22-.1z"/><path fill="#D6B46E" d="m17.4 13.48 3.26-.01.05.1-.17.04c-.22.04-.43.15-.66.15l-1.14.01c-.42-.03-.85.07-1.26-.1-.07-.04-.1-.1-.08-.19z"/><path fill="#D69D33" d="M18.85 5.79c-.15.06-.2.27-.39.26-.29-.05-.4-.22-.28-.5.09-.22.18-.44.32-.63.06-.07.15-.1.23-.16l.13.01c.1.33-.23.67-.01 1.02z"/><path fill="#F6F0D5" d="m23.72 14.36.12-.01.18-.1c.1-.03.2-.04.31-.04.38-.03.76.09 1.14 0 .11 0 .21 0 .32.02.11.02.2.07.27.16v.12h-.12c-.74.1-1.49.1-2.23 0l.01-.15z"/><path fill="#F2F6FC" d="M23.71 14.51h2.23v.26c-.46-.24-.96-.08-1.44-.13-.27-.03-.56.11-.79-.13z"/><path fill="#F7D673" d="M26.98 13.58v-.1h2.36l-.01.1c-.18.21-.43.17-.65.2-.43 0-.85-.02-1.28-.01-.16-.02-.31-.05-.42-.19z"/><path fill="#DAA43A" d="M18.85 5.79c-.46-.34.02-.69 0-1.03l.12-.05c.07.31-.3.69.14.95-.06.09-.14.16-.26.13z"/><path fill="#CF9128" d="m18.72 4.75-.13.13c-.27.22-.19.71-.61.81-.28-.23.09-.4.06-.61-.01-.09-.07-.14-.12-.21.25-.14.52-.19.8-.12z"/><path fill="#0056A6" d="M21.63 4.08c.07-.31.38-.35.58-.51.11.28-.29.38-.21.64l-.09.03c-.17.07-.23-.04-.28-.16z"/><path fill="#005BA0" d="M17.42 10.42c.17-.07.27-.27.49-.26l-.08.26c-.08.17-.26.2-.41.27-.07-.09-.07-.18 0-.27z"/><path fill="#B57A11" d="M17.42 5.13c-.26.02-.51.3-.78.03.26-.04.48-.26.77-.16.04.03.05.06.04.08l-.03.05z"/><path fill="#B7770A" d="M17.42 5.13 17.41 5c.14-.15.33-.1.51-.13l.28.14c-.08.08-.17.08-.26.01l-.52.11z"/><path fill="#D3A03F" d="M10.62 4.87c-.26.01-.54.06-.67-.26l.67.26z"/><path fill="#CF942C" d="m16.37 5.15-.13.13c-.2.17-.41.07-.62.02l-.06-.05c.25-.12.53-.1.81-.1z"/><path fill="#EFC65E" d="m12.47 5.26-.69.01c-.04-.03-.06-.05-.04-.08.01-.03.03-.04.04-.04.23 0 .47-.03.69.11z"/><path fill="#E7B94E" d="M11.78 5.15v.12h-.39l-.13-.24.52.12z"/><path fill="#F3F4F5" d="m8.24 3.56.02.65c-.23-.21-.21-.43-.02-.65z"/><path fill="#095A9C" d="M18.86 17.55c.13.19.45-.03.54.25-.1.11-.25.2-.19.39.13.09.22-.03.26-.1.06-.09-.11-.08-.13-.16-.02-.06 0-.11.06-.14.24-.05.46-.03.64.15.17.34-.02.54-.25.73-.27.11-.57.02-.85.11a.25.25 0 0 1-.17-.13c-.04-.37-.14-.75.09-1.1z"/><path fill="#CE8F24" d="M19.25 14.37c-.34.1-.72-.1-1.04.15l-.09-.05c-.15-.26.04-.31.22-.31.2 0 .41.09.57 0-.36.06-.67.05-.74-.44.15-.09.33-.04.49-.05l.29.01c.31.1.61.22.84.46-.05.35-.39.06-.54.23z"/><path fill="#D79D31" d="M19.25 14.37c.12-.2.41-.04.52-.25-.11-.12-.24-.24-.13-.43.09-.04.19-.03.29-.03.13.01.26-.03.37.07l.39.53c-.15.14-.37-.01-.52.12l-.92-.01z"/><path fill="#085796" d="m19.77 18.6.26-.66.53.24c.12.14.24.27-.02.39-.25-.03-.5.27-.77.03z"/><path fill="#BB7E0E" d="m18.07 16.9-.01-1.73c-.14-.25-.29-.5.12-.65h.02l.02 2.01c.01.13.05.3-.15.37z"/><path fill="#004888" d="m19.77 18.6.79-.13c.08.07.07.15 0 .22l-.39.06c-.39.07-.79.09-1.18-.01.22-.25.52-.09.78-.14z"/><path fill="#D2DDE5" d="m18.99 18.74 1.18.01c-.47.25-.97.08-1.45.11-.04-.05-.04-.1-.01-.16.06-.03.1-.02.14.04h.14z"/><path fill="#FEFEFE" d="m18.73 18.73-.01.13c-.18-.44-.2-.88.01-1.32.1.4.09.8 0 1.19z"/><path fill="#114F88" d="M21.08 19.16c-.22.3-.48.32-.78.13.26-.07.5-.21.78-.13z"/><path fill="#3E88B1" d="M18.73 18.73v-1.18h.13l-.01 1.19h-.06l-.06-.01z"/><path fill="#013177" d="M20.56 18.69v-.22c.14-.1 0-.2 0-.29.15.03.32.1.33.25.02.18-.18.22-.33.26z"/><path fill="#CE9629" d="M20.17 14.37c.14-.18.34-.1.52-.12.09.21-.13.09-.17.16l-.35-.04z"/><path fill="#CE9633" d="M22.01 18.49v.12c-.04.06-.07.05-.11 0-.01-.09.02-.12.11-.12z"/><path fill="#C68008" d="M21.89 18.61H22v.13c-.04.04-.09.04-.13 0h-.02l.04-.13z"/><path fill="#CC9D43" d="M21.45 28.24a.37.37 0 0 0 .05-.11c.01-.07.05-.08.09-.03.02.1.02.21.13.27l-.01.23c-.1.05-.11.28-.27.19-.27-.17.09-.37.01-.55z"/><path fill="#B5CED8" d="M24.37 24.14v.08c.14.37.09.74-.02 1.11l-.24-.01-.01-.1c.05-.36-.11-.74.14-1.07l.13-.01z"/><path fill="#FAFCFC" d="m24.35 25.33.02-1.11.25.32c-.2.23-.01.59-.27.79z"/><path fill="#0D3D7A" d="M25.01 24.94h.13c.17-.08.27.03.37.13v.25c-.3.05-.39-.17-.5-.38z"/><path fill="#F2F4F3" d="M13.48 25.34v.12c-.54.71-.93.23-1.33-.17-.06-.08-.05-.16 0-.25.13-.16.28-.29.4-.46.19-.2.07-.72.51-.64.45.07.28.51.32.81.01.11.01.22.03.32l.04.17a.4.4 0 0 0 .03.1z"/><path fill="#F7F9F8" d="M14.79 27.31c-.28-.07-.63-.07-.39-.52.18-.24.49.01.69-.17a.48.48 0 0 1 .23-.1h.26a2.1 2.1 0 0 1 0 1.85c-.19-.05-.23-.24-.33-.38l-.03-.29c.07-.36-.27-.27-.43-.39z"/><path fill="#12518A" d="m12.16 25.07-.01.23-.23.14c-.29-.22-.62-.03-.93-.12-.05-.06-.06-.12-.03-.19.07-.44-.06-.9.09-1.34.04-.06.1-.08.18-.07.06.04.1.09.13.15.03.08.06.17.05.25-.09.55.19.8.69.88l.06.07z"/><path fill="#FBFDFC" d="m15.32 26.52-.14.13c-.3.14-.54.02-.78-.16.32-.48.62-.19.92.03z"/><path fill="#F6EFDA" d="M15.58 28.37v-1.85l.11-.01.09.07c.19.54.13 1.09.05 1.63a.32.32 0 0 1-.14.16h-.11z"/><path fill="#C58E24" d="m14.4 26.5.78.16c.05.26-.11.33-.29.24a.83.83 0 0 0-.48-.11l-.17-.16.16-.13z"/><path fill="#F3F8FC" d="M13.07 27.96c-.08-.49-.38-1.02.17-1.44-.05.27.06.54.02.81-.08.2-.06.43-.18.62l-.01.01z"/><path fill="#D6AF60" d="M13.2 27.32c.03-.26-.26-.54.03-.79a.3.3 0 0 1 .13.02l-.01 1.16-.11.01c-.14-.12-.09-.26-.04-.4z"/><path fill="#F5F8F8" d="m17.02 26.39-.17.15c-.09.07-.18.08-.29.07-.28-.08-.61.02-.86-.22.45-.29.88-.09 1.32 0z"/><path fill="#F5E8D1" d="M15.71 26.39c.31.04.64-.1.92.11-.2.24-.46.19-.72.15a.76.76 0 0 1-.19-.12l-.04-.02a.27.27 0 0 0 .03-.12z"/><path fill="#0E6BAF" d="M17.42 10.42v.27l-.12.13c-.19.27-.4.41-.62.05-.22-.35-.8-.34-.84-.86l.39-.52c.08-.07.21-.1.17-.26.59-.81 1.35-1.45 2.06-2.14.09.09.08.19.01.29l-.26.39c-.36.26-.66.56-.92.92-.23.61-.19 1.18.13 1.73z"/><path fill="#0C64A7" d="m14.53 11.33 1.18-1.19c.38.44.75.89 1.23 1.22-.08.2-.27.27-.43.38-.05.04-.1.06-.16.05-.08-.01-.18-.08-.25-.01-.59.61-1.15.3-1.72-.02-.07-.19.05-.31.15-.43z"/><path fill="#0D62A5" d="M14.4 11.74c.28.06.55.03.82.24.27.22.48-.12.68-.29.19-.18.37-.38.48.06.07.26-.18.37-.25.57-.07.19-.26.24-.39.35-.37-.05-.72.06-1.06.16-.36-.11-.65-.29-.73-.7.03-.24.14-.44.45-.39z"/><path fill="#0F68AB" d="M16.94 11.36c-.68-.13-1.04-.59-1.23-1.22l.13-.13c.28.38.83.42 1.05.89.13.27.26-.1.41-.08-.08.21-.04.5-.36.54z"/><path fill="#11609F" d="M14.66 12.8c.33-.27.66-.55 1.06-.12l-.16.26c-.3.29-.62.1-.93.03v.01c-.03-.08-.02-.14.03-.18z"/><path fill="#145790" d="m14.63 12.96.93-.03c.03.12.04.24-.12.29-.27-.09-.62.08-.81-.26z"/><path fill="#004B8C" d="M16.12 12.32c-.05-.25.15-.39.25-.57h.14c0 .28-.07.51-.39.57z"/><path fill="#F4FCFE" d="M13.37 25.32c-.26-.2-.1-.49-.15-.73-.04-.19.12-.52-.2-.53-.28-.01-.18.29-.19.47-.01.21-.11.2-.25.14a.25.25 0 0 1-.08-.14c.02-.22-.16-.41-.07-.64.01-.2.09-.35.3-.4l.12.13c.2.13.51.09.61.4 0 .44.12.88-.09 1.3z"/><path fill="#1D73B2" d="M9.55 20.47c.07.18.26.21.42.3-.15.12-.38.13-.42.36-.03.14-.14.14-.25.14-.14-.06-.32.14-.45-.05-.03-.13.02-.24.06-.36.17-.21.22-.62.64-.39z"/><path fill="#00549C" d="m9.02 20.97-.13.27c0 .11-.06.2-.12.28-.06.15-.17.11-.28.09-.07-.03-.14-.05-.17-.12l-.01-.07a.49.49 0 0 0 .03-.07l.08-.11.06-.13.16-.16c.13-.08.26-.1.38.02z"/><path fill="#00347C" d="M12.43 23.9c.06.21.33.38.13.64-.14.07-.24-.02-.33-.11a.66.66 0 0 1-.13-.45c.04-.09.09-.17.21-.11l.12.03z"/><path fill="#003C84" d="m8.4 21.52.09.1c-.09.08-.21.14-.23.28l-.41.14c-.02-.22.15-.34.26-.49v-.04a.21.21 0 0 1 .15-.07c.06 0 .11.03.14.08z"/><path fill="#FBFBF9" d="M10.99 23.35c.36-.24.72-.18 1.06.04v.06l-.04.05a.36.36 0 0 1-.28.08c-.24-.08-.53 0-.74-.23z"/><path fill="#003E81" d="m12.72 23.58.01-.09c.04.01.07 0 .1-.02.16.09.39-.06.52.14v.09l-.04.09c-.22.01-.49.12-.59-.21z"/><path fill="#3F78A6" d="m11.78 23.46.24.03.04.11c-.04.06-.1.1-.17.13-.25.1-.49 0-.73-.05-.08.01-.14-.01-.19-.07-.02-.08 0-.14.07-.18.24 0 .49-.04.74.03z"/><path fill="#05599B" d="M8.77 21.53c0-.12.01-.22.12-.28.13.04.29-.16.41.03-.15.12-.32.22-.53.25z"/><path fill="#00226F" d="m11.92 23.65.14-.05c.16.02.24.12.26.27l-.15.14c-.12.07-.2-.01-.28-.08a.3.3 0 0 1-.05-.15c0-.05.03-.1.08-.13z"/><path fill="#EEF8FC" d="m11.78 23.46-.78.04c-.04.05-.08.05-.12 0l-.02-.01.13-.14c.26.04.55-.09.79.11z"/><path fill="#0F65A4" d="M11.43 16.74a.2.2 0 0 1 0-.11c.38-.13.33-.6.62-.8.4.4.98.32 1.44.56-.16.3-.63.33-.65.75l-1.41-.4z"/><path fill="#F7F7F6" d="m11.78 19.24-.14-.13c-.02-.39.49-.19.54-.5.19.17.43.16.65.22l.18.01c.21.01.41-.01.61-.08.21-.04.42-.13.64-.04-.03.19-.09.4.13.53l-.13.13a6.3 6.3 0 0 1-2.48-.14z"/><path fill="#105B9A" d="M14.26 18.71c-.19.15-.42.17-.65.15-.22.02-.45-.05-.65.09a.59.59 0 0 1-.13.02c-.13-.14-.33-.24-.26-.48l.38-.17c.15.01.3.04.4-.12l.03-.11c.24-.23.49-.35.75-.03.24.18.38.38.13.65z"/><path fill="#EFF3F4" d="M13.05 17.44c-.21.32-.38.56-.75.47.21-.41.21-.41.75-.47z"/><path fill="#0B5492" d="M15.06 18.74c.26.27-.07.35-.17.49-.16.22-.23-.04-.33-.09.01-.22.32-.28.28-.52.12-.07.12.11.22.12z"/><path fill="#01337C" d="M12.57 18.5c.07.17.29.26.26.48-.26-.05-.52-.08-.64-.37l.38-.11z"/><path fill="#0A4D8B" d="M14.27 17.28v.35c-.16-.11-.4-.01-.53-.21.13-.2.34-.12.53-.14z"/><path fill="#FDFDFD" d="M14.14 18.06c-.26-.17-.5.02-.75.03.25-.38.41-.39.75-.03z"/><path fill="#073D7D" d="M15.06 18.74c-.18.15-.12-.14-.23-.12l.01-.28c.1.01.04-.26.21-.12l.01.52z"/><path fill="#16528E" d="M13.35 18.21c.12.13.01.19-.08.23-.13.06-.24.02-.32-.11.09-.2.28-.06.4-.12z"/><path fill="#0A5F9F" d="M17.81 19.39c-.39-.18-.55-.89-1.18-.53v-.27c.27-.41.58-.27.89-.06.22.14.32.41.55.54.05.06.05.12 0 .18-.09.06-.18.1-.26.14z"/><path fill="#004E8E" d="m20.04 20.05-2.74-.01c.05-.1.15-.12.25-.12h2.49c.04.03.06.06.04.09l-.04.04z"/><path fill="#003D80" d="M18.21 19.39h1.82c-.61.07-1.23.27-1.82 0z"/><path fill="#014E8B" d="M18.07 19.26v-.13c-.07-.09-.08-.18 0-.26v-.13c.04-.06.08-.06.12 0l.02.51v.14l-.01.01-.13-.14z"/><path fill="#004686" d="M20.04 20.05v-.13c.2.04.44-.09.61.11l-.61.02z"/><path fill="#DE9C29" d="M21.87 18.74H22l-.11.13-.02-.13z"/><path fill="#EBDAAF" d="m21.08 28.49-1.17.01v-.14l1.15-.02.02.15z"/><path fill="#C99231" d="M19.27 28c.17-.02.32.03.32.22 0 .12-.11.2-.23.16-.21-.07-.12-.24-.09-.38z"/><path fill="#F1F5F5" d="M19.07 28.39h-.15c-.05-.02-.12-.07-.13-.11-.02-.09.05-.09.11-.06.08.02.17.04.17.17z"/><path fill="#0F65A5" d="M12.04 15.82c-.11.35-.05.82-.62.8-.19-.26-.58-.38-.55-.79.12-.24-.09-.48.02-.72.2-.35.47-.55.89-.37.14.26-.04.57.12.82l.14.26z"/><path fill="#D69D32" d="M11.8 14.7c-.3.11-.62.18-.81.48-.06.04-.12.04-.17-.02-.02-.13-.07-.26.06-.37.12-.31.28-.59.55-.8.32.04.51.19.49.54l-.01.11c-.02.05-.06.07-.11.06z"/><path fill="#D3972C" d="m11.92 14.53-.49-.54c.06-.17.2-.23.36-.27.28.07.48.21.52.52v.12a.54.54 0 0 1-.39.17z"/><path fill="#0D63A7" d="M13.22 15.3c-.08.18-.21.27-.4.27-.19-.09-.4-.14-.55-.26-.22-.19-.07-.27.14-.28.1-.07.19-.08.28.01.14.17.33.24.53.26z"/><path fill="#075BA0" d="m12.7 15.04-.28-.01a.3.3 0 0 1 .29-.22c.21.1.45-.04.65.1-.19.22-.44.1-.66.13z"/><path fill="#E7EEF2" d="M11.8 14.7a.37.37 0 0 1 .11-.05v.92c-.26-.26-.05-.58-.11-.87z"/><path fill="#05508F" d="M13.35 14.91c-.22-.03-.45.07-.65-.1.03-.03.07-.04.11-.05.22.09.5-.12.67.14l-.13.01z"/><path fill="#1A81C2" d="m9.31 19.93-.65-.27c-.06-.3.28-.32.36-.53.49-.05.2.55.53.64l-.13.13c-.03.08-.07.08-.11.03z"/><path fill="#1472AE" d="M9.16 18.63c-.02-.3.03-.58.26-.8-.01.28 0 .56-.05.82-.03.16-.15.19-.21-.02z"/><path fill="#CA891E" d="M18.19 14.52c-.2.19-.08.43-.12.65-.29-.09-.4.25-.65.26-.13-.57-.06-1.13-.04-1.7.27-.12.55-.11.82-.01.2.26.44.43.82.41-.25.31-.76-.19-.83.39z"/><path fill="#B97404" d="M17.42 13.72v1.71l-.01 1.31c-.29-.44-.09-.92-.12-1.37-.03-.63 0-1.25.01-1.88.03-.02.06-.02.1-.01l.02.1c.07.05.07.09 0 .14z"/><path fill="#FEFEFE" d="m9.31 19.93.11-.02c.01.18.1.28.28.28-.02.11.01.24-.14.28-.41-.09-.38.31-.53.5l-.39-.01c.09-.43.43-.7.67-1.03z"/><path fill="#0C63A4" d="M18.07 18.86v.26c-.22 0-.36-.14-.47-.31-.26-.37-.58-.43-.96-.22v-.79c.4.45 1.12.47 1.43 1.06z"/><path fill="#024F82" d="m17.15 19.8-.52-.03c-.04-.05-.12-.09-.13-.14-.03-.15.1-.09.16-.08l.5.1-.01.15z"/><path fill="#D19127" d="M26.98 19.53v.39c-.47.14-.64-.17-.78-.52v-.79c.24-.21.42-.58.84-.34.02.21.01.42.01.64-.03.19.06.42-.07.62z"/><path fill="#DAA034" d="m27.1 15.97-.01 1.06c-.1.21 0 .44-.07.66-.23.24-.37.63-.82.51l.01-1.58c.13-.05.17.06.23.13.22.11.23-.12.31-.21.09-.18.06-.41.19-.58a.14.14 0 0 1 .16.01z"/><path fill="#F0C75E" d="m26.06 14.39-.25-.03c-.21-.11-.19-.23 0-.34.21-.1.6.03.53-.43h.52c.32.07.38.3.25.54-.22.41-.42.84-.73 1.2-.06-.03-.1-.08-.1-.15-.03-.22.06-.45-.06-.67-.06-.03-.11-.08-.16-.12z"/><path fill="#E6B64B" d="M26.33 16.89c-.01-.1-.02-.2-.12-.25v-.92c.23.04.39-.01.48-.27.04-.13.11-.42.36-.16-.03.23.06.47-.06.69-.03.22.09.47-.13.66-.22-.01-.28.31-.53.25z"/><path fill="#EABD52" d="M26.98 15.17c-.17.12-.16.34-.23.51-.06.13-.06.32-.23.36-.25.05-.15-.27-.31-.33v-.53c.04-.06.08-.06.12 0v.13c.27.1.22-.16.31-.27.1-.12.13-.4.4-.22 0 .12.04.24-.06.35z"/><path fill="#D6992E" d="M26.2 18.21c.32-.08.44-.47.78-.53.08.07.06.17.06.26s.01.19-.06.26c-.29.08-.47.37-.78.4v-.39z"/><path fill="#EDC158" d="M26.33 15.17h-.12v-.66c.2.19.09.44.12.66zM26.98 14.77c-.13.21-.25.44-.4.64-.18.23-.22.05-.26-.11.16-.36.25-.74.56-1.04.17-.16.25-.46-.03-.67l.13-.01.4.01c.08.09.23.03.29.15.02.23-.15.33-.31.45-.08.03 0 .04.02.01.06-.09.18-.09.29-.08.09.01.17.05.23.13v.11l-.66.03-.14.15c-.08.05-.02.18-.12.23z"/><path fill="#E1B24D" d="M26.98 14.77c0-.1.01-.2.12-.25v1.45l-.11-.01v-.79l-.01-.4z"/><path fill="#CE9523" d="M26.98 17.94v-.27c.03-.21-.08-.45.11-.64v.91c-.03.06-.07.06-.11 0z"/><path fill="#C48714" d="M26.98 17.94h.11l.01.92c-.04.06-.08.06-.12 0v-.92z"/><path fill="#BB7B09" d="M26.98 18.87h.12v.66h-.12v-.66z"/><path fill="#C78822" d="M14.01 13.46c.33.17.74.03 1.05.26-.19.18-.52.12-.66.39l-.78-.13c-.14-.16-.05-.28.05-.41.09-.09.21-.11.34-.11z"/><path fill="#FDFEFE" d="M18.86 25.6c-.26-.04-.56.11-.79-.13h1.18c-.1.15-.25.12-.39.13z"/><path fill="#001E71" d="M16.4 25.18c.03-.29-.14-.6.1-.87-.06.29.08.6-.1.87z"/><path fill="#004181" d="m17.41 23.74-.78.02v-.13c.26.02.55-.12.78.11z"/><path fill="#1171B6" d="m16.89 17.55.26-.01c.22-.02.47.09.66-.12l.26.01c.1.3.1.61 0 .91-.25-.49-.89-.37-1.18-.79z"/><path fill="#015E9C" d="M18.07 18.34v-.91c.33.41.1.87.12 1.31h-.12v-.4z"/><path fill="#01407B" d="M21.24 25.19v-1.04c.17.35.17.7 0 1.04z"/><path fill="#064887" d="M15.72 25.2c-.28.25-.61.1-.93.11.29-.21.62-.07.93-.11z"/><path fill="#E6B548" d="M22.79 16.75c.26.1.4.55.79.26.05.16.17.34-.12.4-.44.01-.73-.14-.67-.66z"/><path fill="#F1F5F5" d="M23.46 17.42c.17-.1.13-.25.12-.4v-.4l-.1-.39c.46.37.13.88.23 1.32h-.23a.2.2 0 0 1-.02-.13z"/><path fill="#01226E" d="m18.08 25.33-.01-1.58c.26.5.07 1.04.12 1.56a.36.36 0 0 1-.11.02z"/><path fill="#E3F2F4" d="M18.35 24.93h.9v.12l-.15.15c-.18-.27-.57.04-.75-.27z"/><path fill="#E7CD96" d="m21.6 28.09-.09.03-.01-1.08c.21.33.08.7.1 1.05z"/><path fill="#C88E29" d="m18.21 28.35-.03-1.55.04-.02c.42.27 0 .74.24 1.06-.02.2.18.5-.25.51z"/><path fill="#C4891C" d="M18.46 27.84c-.3-.3.04-.75-.24-1.06.12-.18.24-.15.37-.01-.2.34-.03.72-.13 1.07z"/><path fill="#002673" d="M13.59 24.67v.64l-.12.03.02-.04c-.14-.18-.05-.39-.06-.59.04-.06.09-.08.16-.04z"/><path fill="#246B9B" d="M22.26 24.93v-.14c.3.07.65-.13.92.15l-.92-.01z"/><path fill="#CC8D21" d="m13.74 13.59-.13.39c-.13.01-.28-.04-.37.12-.32.04-.65-.05-.95.15l-.52-.52c.23-.17.49-.27.78-.27.4.15.83-.18 1.19.13z"/><path fill="#044987" d="m25.52 25.07-.37-.13-.01-.24.14-.03c.07.16.16.03.25.01l-.01.39z"/><path fill="#001367" d="m19.75 24.15.02 1.04c-.27-.32-.08-.69-.11-1.04h.09z"/><path fill="#013C7D" d="M24.24 24.15c-.08.35.14.75-.14 1.07-.27-.33-.09-.71-.11-1.07h.25z"/><path fill="#32699E" d="M13.5 24.67v.64l-.06.02h-.06l-.04-1.44c-.03-.03-.04-.06-.03-.08l.04-.04.01-.06.14.18c.08.26.07.52 0 .78z"/><path fill="#002069" d="M13.5 24.67v-.78h.1v.79h-.05l-.05-.01z"/><path fill="#E3B348" d="M27.64 13.72c-.1 0-.2-.02-.26-.13h1.31c.08.09.23.03.29.14.03.16-.03.29-.14.4-.06.03-.11.02-.16-.02-.24.16-.52.13-.79.13h-.26c-.06-.17.32-.35.01-.52z"/><path fill="#D59F2F" d="M28.95 13.72c-.1 0-.2-.02-.25-.12l.64-.02c.19.18.21.43.05.57-.19.17-.47.16-.7-.03h.13c.1-.12.34-.18.13-.4z"/><path fill="#F3F4F5" d="M7.59 18.09c.24.26-.1.34-.16.51-.18-.07.04-.37-.16-.37-1-.03-.54-.76-.53-1.2.01-.37.07-.73-.07-1.09-.37-.96.34-1.63.67-2.4.01-.02.16.03.24.04.11 1.51.11 3.01.01 4.51z"/><path fill="#CA8C23" d="M17.94 5.01 18.2 5l-.26.66v.08c-.05.18.02.37-.01.56-.38.28-.85.37-1.28.56l-.82-1.46c.13-.1.26-.1.39-.01.21.28.29.78.66.8.44.03.67-.4.86-.79.08-.12.2-.22.2-.39z"/><path fill="#DBA73D" d="M14.66 5.54c.7.01 1.22.45 1.39 1.23.04.16.08.22.21.24-.25.15-.51.24-.8.26-.09.03-.18.02-.21-.07a6.7 6.7 0 0 0-.64-1.25c-.09-.13-.06-.29.05-.41z"/><path fill="#E3B44A" d="M14.66 5.54c.17.62.66 1.1.8 1.73-.15.13-.34.13-.52.13-.09.06-.18.06-.28.02-.14-.89-.54-1.58-1.48-1.81-.09-.02-.13-.11-.09-.21l1.45.02.12.12z"/><path fill="#F0C861" d="m14.67 7.38.27.02c-.2.16-.43.11-.66.13l-.4-.02c-.05-.09 0-.16.04-.23 0-.45-.36-.67-.6-.97-.15-.18-.41-.26-.49-.51v-.26c1.11.11 1.44 1 1.84 1.84z"/><path fill="#3791BC" d="m7.97 17.55-.11.13-.01-4.2c.34-.24.69-.21 1.04-.02h-.01c.06.05.06.11.02.17a.56.56 0 0 1-.17.09c-.17.06-.37 0-.51.15-.15.49-.04.99-.07 1.49v.91c.02.43.01.87-.18 1.28z"/><path fill="#FAFBFB" d="m7.59 18.09-.01-4.51c.28.05.12.27.12.39l.01 3.06c0 .21-.07.44.1.62.08.24-.02.37-.22.44z"/><path fill="#1370B2" d="m18.47 7.39-.01-.29c.45-.52.92-1.01 1.44-1.45a.3.3 0 0 1 .11.25.62.62 0 0 1-.15.35c-.32.3-.57.69-1 .87l-.26.26-.13.01z"/><path fill="#E8F4F7" d="M8.88 13.59v-.13c.17.12.14.3.14.47v3.32c0 .15.01.31-.12.42l-.04-.13c-.06-.26-.09-.54-.14-.81-.02-.48 0-.96-.01-1.44.07-.57-.15-1.16.17-1.7z"/><path fill="#0E66AA" d="m14.66 12.8-.03.17-.9-.16c.09-.09.18-.09.3-.04-.15-.17-.52.18-.55-.24l.03-.12c.15-.13.24-.36.5-.26.13.29.44.42.65.65z"/><path fill="#00519B" d="M14.01 12.13c-.18.07-.28.28-.5.26.16-.53.55-.84 1.02-1.07l-.13.41a.89.89 0 0 0-.39.4z"/><path fill="#C5830F" d="M13.74 13.59c-.39-.07-.81.13-1.18-.14l.29-.12c.03-.06.06-.07.11-.01.35.06.72-.1 1.05.14-.06.11-.16.13-.27.13z"/><path fill="#197DBA" d="m19.91 5.93-.01-.28.42-.51c.02-.06.05-.1.11-.12l.23-.16a.17.17 0 0 1 .18-.01c.18.36-.14.52-.3.74-.2.14-.32.42-.63.34z"/><path fill="#D3962C" d="M17.94 5.67c.4-.11.22-.71.66-.79-.09.21-.14.45-.26.64-.15.24-.06.39.12.53l-.24.03c-.46.11-.37-.15-.28-.41z"/><path fill="#E0AE47" d="M19.37 5.5c-.43-.32-.08-.46.14-.62 0 .17.09.26.26.26.04.03.05.06.04.09-.01.03-.03.04-.04.04-.09.16-.26.16-.4.23z"/><path fill="#CF9128" d="M17.94 5.67c-.01.2.01.39.28.4a.32.32 0 0 1-.28.24c-.32-.22-.24-.43 0-.64z"/><path fill="#004E94" d="M13.48 12.52c.17.25.47.07.73.23l-.48.06c-.15-.01-.33.08-.44-.08-.02-.02.12-.14.19-.21z"/><path fill="#EDFAFA" d="m8.89 13.46-1.04.02-.01-.16c.35-.1.7-.1 1.05 0v.14z"/><path fill="#F9F8F9" d="M8.9 13.32H7.85a1 1 0 0 1 1.05 0z"/><path fill="#E0B34C" d="M19.78 5.28v-.13c.18-.27.42-.18.65-.12l-.11.12c-.21-.08-.38.02-.54.13z"/><path fill="#1366A0" d="M8.61 18.6c-.22-.28-.01-.47.15-.66a.96.96 0 0 1-.15.66z"/><path fill="#1B5B91" d="m10.87 15.2.13-.02c-.03.22.07.46-.12.65l-.13-.29c-.05-.02-.07-.06-.05-.11.07-.06.08-.17.17-.23z"/><path fill="#FBFCFA" d="M10.77 15.45c0 .03 0 .06-.02.09l-.06.42c-.11-.31-.13-.49.02-.65.07.02.09.07.06.14z"/><path fill="#FAFDFC" d="m12.96 13.32-.05.03-.06-.01-.53-.05c.3-.13.48-.15.64.03z"/><path fill="#E3CF9B" d="m10.77 15.45-.06-.14c.05-.18-.05-.4.17-.52l-.01.41-.1.25z"/><path fill="#00549D" d="M16.4 9.24c.17.23-.02.23-.17.26l.17-.26z"/><path fill="#004E93" d="M3.78 17.68c-.26-.54-.11-1.12-.12-1.67-.03-.76-.01-1.52-.01-2.29.09-.05.15-.02.19.07.05 1.21-.06 2.42.06 3.62l.03.26-.15.01z"/><path fill="#EBC056" d="M14.67 7.38c-.31.01-.31-.29-.38-.45a2.59 2.59 0 0 0-1.46-1.39h-.13c.1-.16.25-.13.4-.13.71.14 1.2.55 1.54 1.19.15.29.17.51.03.78z"/><path fill="#EFC65E" d="M12.57 5.54c-.51-.08-.91.09-1.23.5-.11.15-.26.29-.48.29.78-.98.96-1.07 1.71-.79z"/><path fill="#F4CF65" d="M12.83 5.8c.6.25.95.75 1.28 1.27.08.12.19.29-.1.32-.36-.11-.5-.45-.73-.7-.55-.62-.76-.67-1.5-.35-.34-.02-.45.42-.79.4l.24-.31c.41-.55.88-.9 1.6-.63z"/><path fill="#F7D66E" d="M11.78 6.33c.42-.48.76-.52 1.24-.13.4.33.68.77.98 1.18l-.13.13c-.67.15-.49-.56-.79-.79-.26-.43-.58-.66-1.05-.26-.09.07-.17.08-.26 0l.01-.13z"/><path fill="#F9DA73" d="M11.78 6.46h.26l-.13.4c-.36 0-.44.35-.66.53-.25-.56.29-.66.53-.93zM12.04 6.46c.5-.43.77-.37 1.05.26-.31-.25-.61-.52-1.05-.26z"/><path fill="#00488C" d="M3.13 17.28h-.12L3 14.14c0-.19-.07-.4.13-.54.05.03.06.05.05.08-.02.03-.03.04-.05.04v3.56z"/><path fill="#03438B" d="M3.13 13.72v-.12h.76c.02.04.02.08 0 .12-.03.07-.07.07-.11 0h-.65z"/><path fill="#19558C" d="M3.78 13.72h.11v3.7c-.25-.67-.07-1.37-.11-2.06-.02-.55 0-1.1 0-1.64z"/><path fill="#C9902E" d="M16.91 26.64c.53.28.68.69.4 1.24a.72.72 0 0 1-.34-.28c-.11-.22-.17-.45-.27-.67a.6.6 0 0 1 0-.19c.04-.1.1-.17.21-.1z"/><path fill="#C68D27" d="m16.91 26.64-.16.16c-.16.13-.36.12-.54.16l-.08.01a.41.41 0 0 1-.16-.03c-.09-.07-.12-.17-.16-.28-.02-.05-.01-.1.04-.14l.79-.04.22.04c.01.05.03.09.05.12z"/><path fill="#BB7500" d="M17.04 27.58c.2 0 .24.15.27.3-.18.2-.35.42-.67.36l-.05-.07c0-.06.01-.11.04-.17.12-.15.21-.34.41-.42z"/><path fill="#F8FCFE" d="M16.63 28.5c-.31.23-.61.2-.91-.01.3-.22.61-.22.91.01z"/><path fill="#EEDDB7" d="m16.63 28.5-.91-.01a.27.27 0 0 0-.03-.12l.05-.02a.42.42 0 0 1 .18-.11c.25-.06.49-.06.71.11v.15z"/><path fill="#BF7F0C" d="m16.62 28.36-.77-.01c-.09-.08-.07-.17-.03-.26a.4.4 0 0 1 .18-.05c.22.03.45.03.63.2l.01.01-.02.11z"/><path fill="#00246B" d="M8.64 24.82c.03-.23-.1-.49.13-.68.03.24.16.5-.13.68z"/><path fill="#F3F2EA" d="M14.79 27.31c.19.05.4-.16.55 0 .12.13-.02.27-.12.39l-.43-.39z"/><path fill="#6999B9" d="M10.88 23.5H11v.12c.1.52.08 1.04.01 1.56l-.01.14-.06.01h-.06V23.5z"/><path fill="#F7F5E7" d="m13.2 27.32.05.4-.17.24c.04-.22-.07-.46.12-.64z"/><path fill="#00256B" d="M7.38 24.92c-.1-.36-.05-.72-.05-1.21.21.43.09.75.15 1.06l-.1.15z"/><path fill="#1073B7" d="M8.76 17.28c-.22-.55-.43-.09-.65 0-.13-.24-.04-.49-.06-.73.26-.45.5-.3.73.03.03.06.05.13.04.2-.01.17.06.35-.06.5z"/><path fill="#0063A9" d="M8.11 16.49v.79c0 .11-.03.21-.14.27l.02-1.32c.06-.04.11-.04.16.01.04.09.03.17-.04.25z"/><path fill="#00649C" d="m8.76 17.28.01-.53c.04-.06.08-.06.12 0l-.01.79-.12-.26z"/><path fill="#0058A0" d="M5.49 19.52h.68c-.12.21-.29.1-.41.14-.12 0-.22-.03-.27-.14z"/><path fill="#F3F4F5" d="M6.27 20.33c-.22.17-.43.17-.65 0h.65z"/><path fill="#FEFEFE" d="M8.48 21.12c.02.04.03.08.02.12l-.06.05-.07-.04a.2.2 0 0 1 0-.11c.04-.02.08-.02.11-.02z"/><path fill="#FEFEFE" d="M8.24 21.38c0-.09.05-.13.13-.13l-.01-.01c.03.03.04.06.04.09l-.01.05-.01.02-.11.02-.03-.04z"/><path fill="#FEFEFE" d="M8.24 21.51h-.12c0-.09.04-.13.13-.13l-.01-.01c.04.03.05.06.04.09l-.04.05z"/><path fill="#1C86C8" d="m19.91 5.93.52-.39c.25.09.34.3.41.53a6.86 6.86 0 0 1-1.47 2.1 6.26 6.26 0 0 1-.25-.26c-.16-.41.23-.61.38-.88s.32-.51.27-.83l.14-.27z"/><path fill="#1D82C4" d="M20.84 6.07c-.25-.09-.3-.34-.41-.53.09-.25.42-.36.39-.67-.03-.02-.05-.05-.05-.08l.01-.05c.05-.06.12-.08.18-.13l.01-.02.66-.52.27.16a.2.2 0 0 1-.04.12c-.14.14-.16.35-.26.52-.14.47-.41.86-.76 1.2z"/><path fill="#0065B1" d="M21.61 4.87c0-.22.02-.43.26-.52a.8.8 0 0 1-.26.52z"/><path fill="#BE7C11" d="m16.23 5.4-.39.01c-.09-.01-.18 0-.22-.11l.62-.02-.01.12z"/><path fill="#CF992E" d="M20.3 13.72h-.4c-.04-.03-.06-.05-.04-.08.01-.03.03-.04.04-.04l.64.02-.24.1z"/><path fill="#1C83C4" d="M19.77 6.2c.42.22.17.46.02.69-.22.35-.45.68-.68 1.02-.58-.1.03-.6-.26-.79.26-.36.57-.67.92-.92z"/><path fill="#FADC78" d="m25.54 14.36-1.3.01c-.1-.08.19-.12 0-.29-.17-.15-.16-.47.26-.36.41.51.57.49 1.05-.13.36.26-.01.51-.01.77z"/><path fill="#F2CE6B" d="M26.33 13.59c.11.09.31.18.31.26-.01.2-.23.22-.39.25-.15.02-.3.01-.44.01-.12-.18.27-.35 0-.52h.52z"/><path fill="#F7D673" d="M24.49 13.72c-.3.27-.3.27.13.47l-.38.17h-.27c-.01-.27-.2-.56.12-.77.15 0 .3-.03.4.13z"/><path fill="#F8D672" d="M25.81 13.59c.28.18.1.35 0 .52-.14.08-.02.16 0 .25h-.27c-.2-.26.21-.51.01-.77h.26z"/><path fill="#F3CD60" d="M24.09 13.59c-.22.23.01.53-.12.77l-.06.01-.06-.01c.06-.27-.21-.64.24-.77z"/><path fill="#E0AE47" d="M19.51 4.88c.09-.24.33-.29.52-.4-.01.34-.24.41-.52.4z"/><path fill="#E3FEFE" d="m20.97 4.62-.12.14c-.05.05-.09.04-.13-.01.03-.14.14-.13.25-.13z"/><path fill="#DFF6FE" d="m20.71 4.75.13.01-.02.11-.16-.01c0-.04.02-.08.05-.11z"/><path fill="#C17F0B" d="M17.42 13.72v-.14l1.31.01c.04.03.06.06.04.08-.01.03-.03.04-.04.04h-.52l-.79.01z"/><path fill="#C78514" d="M18.72 13.72v-.13h1.18v.12h-.26c-.22.19-.44.09-.65 0l-.27.01z"/><path fill="#0D5FA0" d="M19.38 17.94c.08.05.32-.08.24.13-.1.24-.23.64-.63.26.12-.14.16-.36.39-.39z"/><path fill="#0B66AC" d="M19.38 17.94a.78.78 0 0 1-.39.39c-.03-.31.01-.56.41-.54l-.01-.01a.8.8 0 0 1-.01.16z"/><path fill="#D3962A" d="M18.99 13.72h.65l.13.4c-.34.03-.55-.2-.78-.4z"/><path fill="#0A4083" d="m12.33 24.41.23.13.02.13c-.06.21-.14.42-.42.4h.02c-.17-.27-.07-.48.15-.66z"/><path fill="#E4EBEF" d="m12.33 24.41-.15.67c-.99.01-.99.01-.92-1.19.23-.18.47-.14.71-.02l.21.16.15.38z"/><path fill="#002772" d="M11.01 25.19 11 23.63a.24.24 0 0 1 .12 0c.05.03.06.05.05.08-.02.03-.03.04-.05.04-.06.47.11.97-.11 1.44z"/><path fill="#004283" d="M11.12 23.74v-.12l.8.03-.01.1a.82.82 0 0 1-.65 0l-.14-.01z"/><path fill="#CEDFE9" d="M11.26 23.75h.65l.05.11-.71.02.01-.13z"/><path fill="#CA9939" d="M15.85 28.1v.25l-.06.01h-.06l-.01-1.83a.17.17 0 0 1 .12.01v.11c.17.48.32.97.01 1.45z"/><path fill="#CCDCE7" d="M13.34 23.77c.01.04 0 .08-.01.12-.22-.06-.59.16-.61-.3.15.23.41.14.62.18z"/><path fill="#5797BD" d="m8.39 21.39-.03-.15h.13c.02.08-.02.13-.1.15z"/><path fill="#317AAE" d="m8.24 21.51-.01-.14.15.04.02.11-.16-.01z"/><path fill="#004589" d="M12.96 18.96c.17-.36.41-.27.65-.09-.19.18-.44.03-.65.09z"/><path fill="#E1B24D" d="M26.33 16.89c.19-.06.16-.54.52-.26-.09.25-.17.51-.52.26z"/><path fill="#E7B850" d="M27.64 13.72c.15.03.4-.08.44.11.08.34-.35.21-.44.42-.77-.18.16-.35 0-.53z"/><path fill="#DEAE49" d="M28.95 13.72c.16.02.4-.03.35.23-.05.26-.31.14-.48.17l.13-.4z"/><path fill="#0176B3" d="M8.88 13.59v1.71c-.07.04-.13.02-.18-.04a.87.87 0 0 1-.11-.41c0-.36-.05-.72.05-1.07a.57.57 0 0 1 .12-.18l.12-.01z"/><path fill="#0075BC" d="M7.99 15.3c.05-.57-.16-1.16.12-1.71a.7.7 0 0 1 .12.18c.09.35.05.71.05 1.07a.81.81 0 0 1-.11.41c-.05.08-.11.09-.18.05z"/><path fill="#006DB4" d="M7.99 15.3h.12c.13.11.15.25.17.4 0 .19-.01.38-.17.52h-.12v-.92z"/><path fill="#0074BF" d="M8.11 13.72v-.13h.65v.12c-.21.18-.43.19-.65.01z"/><path fill="#006BA7" d="M8.77 15.3h.12v1.45h-.12v-.14c-.18-.28-.2-.58-.17-.9 0-.14.03-.3.17-.41z"/><path fill="#F1F3F2" d="M17.04 27.58c0 .28-.22.41-.41.55-.23.04-.48.14-.63-.16-.04-.36-.11-.72.08-1.07v.01c.23-.07.46-.08.69.01.37.1.21.43.27.66z"/><path fill="#F5EFDE" d="m16.78 26.91-.69-.01c.19-.22.44-.06.66-.09.01.03.01.07.03.1z"/><path fill="#B97600" d="m15.85 28.1-.01-1.45c.12.06.12.18.15.29.1.32.02.65.05.97a.17.17 0 0 1-.09.18h-.05l-.05.01z"/><path fill="#F5EFDE" d="M15.99 27.95v-1.01l.1-.05v1.12c-.06.02-.09-.01-.1-.06z"/><path fill="#CD9837" d="m15.99 27.95.1.07c.16.16.37.05.55.11l-.01.11c-.23-.02-.49.08-.68-.13l.04-.16z"/><path fill="#1278BF" d="M8.76 15.7v.92c-.2-.12-.38-.35-.65-.13v-.79c.22-.34.43-.22.65 0z"/><path fill="#1582C7" d="M8.11 13.72h.66v1.19c-.22.11-.43.19-.65 0l-.01-1.19z"/><path fill="#137DC3" d="M8.11 14.91c.22.04.43-.15.65 0v.79c-.22-.02-.43-.18-.65 0v-.79z"/></svg>